<svg viewBox="0 0 1041 72" fill="none" xmlns="http://www.w3.org/2000/svg">
<path d="M0.158203 35.36C0.158203 31.07 0.884203 26.879 2.3362 22.787C3.8542 18.629 6.0322 14.867 8.8702 11.501C11.7082 8.06896 15.2062 5.36296 19.3642 3.38297C23.5222 1.33697 28.2412 0.313965 33.5212 0.313965C39.7912 0.313965 45.1372 1.76597 49.5592 4.66997C54.0472 7.50797 57.3472 11.171 59.4592 15.659L54.0142 19.025C52.4962 15.923 50.5822 13.481 48.2722 11.699C45.9622 9.85097 43.4872 8.53097 40.8472 7.73896C38.2732 6.94697 35.6992 6.55097 33.1252 6.55097C28.9012 6.55097 25.1722 7.40897 21.9382 9.12497C18.7042 10.775 15.9652 13.019 13.7212 15.857C11.5432 18.629 9.8932 21.764 8.7712 25.262C7.6492 28.694 7.0882 32.192 7.0882 35.756C7.0882 39.65 7.7482 43.379 9.0682 46.943C10.3882 50.507 12.2362 53.675 14.6122 56.447C16.9882 59.153 19.7602 61.331 22.9282 62.981C26.1622 64.565 29.6602 65.357 33.4222 65.357C36.0622 65.357 38.7682 64.895 41.5402 63.971C44.3122 63.047 46.8862 61.628 49.2622 59.714C51.7042 57.8 53.6512 55.325 55.1032 52.289L60.8452 55.259C59.3932 58.757 57.1492 61.727 54.1132 64.169C51.0772 66.611 47.6782 68.459 43.9162 69.713C40.2202 70.967 36.5902 71.594 33.0262 71.594C28.2082 71.594 23.7862 70.571 19.7602 68.525C15.7342 66.413 12.2362 63.641 9.2662 60.209C6.3622 56.711 4.1182 52.817 2.5342 48.527C0.950203 44.171 0.158203 39.782 0.158203 35.36Z" fill="white"/>
<path d="M119.903 64.862V71H72.6803V0.709966H119.012V6.84797H79.6103V32.192H113.963V38.033H79.6103V64.862H119.903Z" fill="white"/>
<path d="M139.938 13.481V71H133.008V0.709966H138.75L184.884 59.318V0.808964H191.814V71H185.379L139.938 13.481Z" fill="white"/>
<path d="M259.378 6.84797H234.331V71H227.401V6.84797H202.354V0.709966H259.378V6.84797Z" fill="white"/>
<path d="M269.907 71V0.709966H299.607C302.643 0.709966 305.415 1.33697 307.923 2.59097C310.431 3.84496 312.609 5.56096 314.457 7.73896C316.371 9.85096 317.823 12.227 318.813 14.867C319.869 17.441 320.397 20.081 320.397 22.787C320.397 26.153 319.737 29.321 318.417 32.291C317.163 35.261 315.348 37.769 312.972 39.815C310.662 41.861 307.923 43.214 304.755 43.874L321.981 71H314.16L297.627 45.062H276.837V71H269.907ZM276.837 38.924H299.805C302.577 38.924 304.986 38.165 307.032 36.647C309.078 35.129 310.662 33.149 311.784 30.707C312.906 28.199 313.467 25.559 313.467 22.787C313.467 19.949 312.807 17.342 311.487 14.966C310.233 12.524 308.517 10.577 306.339 9.12497C304.227 7.60697 301.851 6.84797 299.211 6.84797H276.837V38.924Z" fill="white"/>
<path d="M356.076 0.709966H361.917L391.122 71H383.796L374.688 49.022H343.107L334.098 71H326.673L356.076 0.709966ZM373.104 43.577L358.947 8.82797L344.592 43.577H373.104Z" fill="white"/>
<path d="M401.198 71V0.709966H408.128V64.862H448.718V71H401.198Z" fill="white"/>
<path d="M481.249 71V0.709966H505.108C512.566 0.709966 518.77 2.29397 523.72 5.46196C528.736 8.56397 532.498 12.788 535.006 18.134C537.514 23.414 538.768 29.288 538.768 35.756C538.768 42.884 537.382 49.088 534.61 54.368C531.904 59.648 528.01 63.74 522.928 66.644C517.912 69.548 511.972 71 505.108 71H481.249ZM531.838 35.756C531.838 30.146 530.782 25.163 528.67 20.807C526.624 16.451 523.621 13.052 519.661 10.61C515.701 8.10197 510.85 6.84797 505.108 6.84797H488.179V64.862H505.108C510.916 64.862 515.8 63.575 519.76 61.001C523.72 58.427 526.723 54.962 528.769 50.606C530.815 46.184 531.838 41.234 531.838 35.756Z" fill="white"/>
<path d="M599.241 64.862V71H552.018V0.709966H598.35V6.84797H558.948V32.192H593.301V38.033H558.948V64.862H599.241Z" fill="white"/>
<path d="M690.446 52.883C690.446 56.381 689.555 59.516 687.773 62.288C685.991 64.994 683.582 67.139 680.546 68.723C677.576 70.241 674.309 71 670.745 71H637.58V0.709966H671.438C674.738 0.709966 677.576 1.60097 679.952 3.38297C682.394 5.09897 684.242 7.34297 685.496 10.115C686.816 12.821 687.476 15.659 687.476 18.629C687.476 22.127 686.585 25.361 684.803 28.331C683.021 31.301 680.546 33.512 677.378 34.964C681.404 36.152 684.572 38.363 686.882 41.597C689.258 44.831 690.446 48.593 690.446 52.883ZM683.516 51.695C683.516 49.319 682.988 47.141 681.932 45.161C680.876 43.115 679.424 41.465 677.576 40.211C675.794 38.957 673.748 38.33 671.438 38.33H644.51V64.961H670.745C673.121 64.961 675.266 64.334 677.18 63.08C679.094 61.826 680.612 60.209 681.734 58.229C682.922 56.183 683.516 54.005 683.516 51.695ZM644.51 6.74896V32.687H668.666C670.976 32.687 673.022 32.093 674.804 30.905C676.586 29.651 678.005 28.034 679.061 26.054C680.117 24.074 680.645 21.962 680.645 19.718C680.645 17.342 680.15 15.197 679.16 13.283C678.17 11.303 676.817 9.71897 675.101 8.53096C673.385 7.34296 671.438 6.74896 669.26 6.74896H644.51Z" fill="white"/>
<path d="M723.845 0.709966H729.686L758.891 71H751.565L742.457 49.022H710.876L701.867 71H694.442L723.845 0.709966ZM740.873 43.577L726.716 8.82797L712.361 43.577H740.873Z" fill="white"/>
<path d="M768.967 71V0.709966H798.667C801.703 0.709966 804.475 1.33697 806.983 2.59097C809.491 3.84496 811.669 5.56096 813.517 7.73896C815.431 9.85096 816.883 12.227 817.873 14.867C818.929 17.441 819.457 20.081 819.457 22.787C819.457 26.153 818.797 29.321 817.477 32.291C816.223 35.261 814.408 37.769 812.032 39.815C809.722 41.861 806.983 43.214 803.815 43.874L821.041 71H813.22L796.687 45.062H775.897V71H768.967ZM775.897 38.924H798.865C801.637 38.924 804.046 38.165 806.092 36.647C808.138 35.129 809.722 33.149 810.844 30.707C811.966 28.199 812.527 25.559 812.527 22.787C812.527 19.949 811.867 17.342 810.547 14.966C809.293 12.524 807.577 10.577 805.399 9.12497C803.287 7.60697 800.911 6.84797 798.271 6.84797H775.897V38.924Z" fill="white"/>
<path d="M862.257 71.495C856.713 71.495 852.027 70.505 848.199 68.525C844.371 66.545 841.335 63.905 839.091 60.605C836.847 57.239 835.197 53.444 834.141 49.22C833.151 44.996 832.656 40.64 832.656 36.152V0.709966H839.487V36.152C839.487 39.782 839.85 43.346 840.576 46.844C841.368 50.342 842.622 53.477 844.338 56.249C846.054 59.021 848.364 61.232 851.268 62.882C854.172 64.466 857.802 65.258 862.158 65.258C866.646 65.258 870.342 64.433 873.246 62.783C876.216 61.067 878.526 58.823 880.176 56.051C881.892 53.279 883.113 50.177 883.839 46.745C884.565 43.247 884.928 39.716 884.928 36.152V0.709966H891.858V36.152C891.858 40.838 891.33 45.326 890.274 49.616C889.218 53.906 887.502 57.668 885.126 60.902C882.816 64.136 879.78 66.71 876.018 68.624C872.256 70.538 867.669 71.495 862.257 71.495Z" fill="white"/>
<path d="M955.603 64.862V71H908.38V0.709966H954.712V6.84797H915.31V32.192H949.663V38.033H915.31V64.862H955.603Z" fill="white"/>
<path d="M968.708 71V0.709966H998.408C1001.44 0.709966 1004.22 1.33697 1006.72 2.59097C1009.23 3.84496 1011.41 5.56096 1013.26 7.73896C1015.17 9.85096 1016.62 12.227 1017.61 14.867C1018.67 17.441 1019.2 20.081 1019.2 22.787C1019.2 26.153 1018.54 29.321 1017.22 32.291C1015.96 35.261 1014.15 37.769 1011.77 39.815C1009.46 41.861 1006.72 43.214 1003.56 43.874L1020.78 71H1012.96L996.428 45.062H975.638V71H968.708ZM975.638 38.924H998.606C1001.38 38.924 1003.79 38.165 1005.83 36.647C1007.88 35.129 1009.46 33.149 1010.58 30.707C1011.71 28.199 1012.27 25.559 1012.27 22.787C1012.27 19.949 1011.61 17.342 1010.29 14.966C1009.03 12.524 1007.32 10.577 1005.14 9.12497C1003.03 7.60697 1000.65 6.84797 998.012 6.84797H975.638V38.924Z" fill="white"/>
<path d="M1033.39 71V0.709966H1040.32V71H1033.39Z" fill="white"/>
</svg>
