<svg   viewBox="0 0 40 43" fill="none" xmlns="http://www.w3.org/2000/svg">
<path d="M30.4464 0.0678711C33.0655 0.0678711 35.3125 1.00537 37.1875 2.88037C39.0625 4.75537 40 7.00239 40 9.62144C40 10.931 39.2113 12.9399 37.6339 15.6482C36.0565 18.3566 34.5089 21.1095 32.9911 23.9072C31.4732 26.7048 30.8036 28.9369 30.9821 30.6036C30.9821 30.9012 30.8185 31.05 30.4911 31.05C30.1637 31.05 30 30.9012 30 30.6036C30.119 28.9369 29.4345 26.7048 27.9464 23.9072C26.4583 21.1095 24.9256 18.3566 23.3482 15.6482C21.7708 12.9399 20.9821 10.931 20.9821 9.62144C20.9821 7.00239 21.9048 4.75537 23.75 2.88037C25.5952 1.00537 27.8274 0.0678711 30.4464 0.0678711ZM30.4911 5.78216C29.4494 5.78216 28.5565 6.15418 27.8125 6.89823C27.0685 7.64228 26.6964 8.55001 26.6964 9.62144C26.6964 10.6929 27.0685 11.6006 27.8125 12.3447C28.5565 13.0887 29.4494 13.4607 30.4911 13.4607C31.5327 13.4607 32.4256 13.0887 33.1696 12.3447C33.9137 11.6006 34.2857 10.6929 34.2857 9.62144C34.2857 8.55001 33.9137 7.64228 33.1696 6.89823C32.4256 6.15418 31.5327 5.78216 30.4911 5.78216ZM3.83929 3.90716H20.3571C19.1667 5.81192 18.5714 7.86549 18.5714 10.0679C18.5714 11.6155 19.5238 14.0857 21.4286 17.4786L0.0892857 38.8179L0 38.1929V7.74644C0 6.67501 0.372024 5.76728 1.11607 5.02323C1.86012 4.27918 2.76786 3.90716 3.83929 3.90716ZM27.6786 28.4607L23.125 23.9072L24.375 22.5679C25.8036 24.8893 26.9048 26.8536 27.6786 28.4607ZM33.125 42.0322H5L19.0179 27.925L33.125 42.0322ZM38.125 19.8893V38.1929L38.0357 38.8179L31.6071 32.3893C31.7857 31.8536 31.994 31.303 32.2321 30.7375C32.4702 30.172 32.7381 29.5768 33.0357 28.9518C33.3333 28.3268 33.6161 27.7613 33.8839 27.2554C34.1518 26.7494 34.5089 26.1095 34.9554 25.3357C35.4018 24.5619 35.7292 23.9816 35.9375 23.5947C36.1458 23.2078 36.5179 22.5679 37.0536 21.675L38.125 19.8893ZM8.92857 22.0322C7.91667 22.0322 7.1131 21.8238 6.51786 21.4072C5.92262 20.9905 5.625 20.425 5.625 19.7107C5.625 18.8774 6.16071 18.2524 7.23214 17.8357C7.82738 17.6572 8.48214 17.5679 9.19643 17.5679H9.64286C10.4167 18.1631 10.9524 18.6095 11.25 18.9072C11.5476 19.2048 11.6964 19.5619 11.6964 19.9786C11.6964 20.5143 11.4286 20.9905 10.8929 21.4072C10.3571 21.8238 9.70238 22.0322 8.92857 22.0322ZM6.69643 11.1393C6.69643 10.5441 6.86012 10.0828 7.1875 9.75537C7.51488 9.42799 7.88691 9.2643 8.30357 9.2643C9.07738 9.2643 9.6875 9.62144 10.1339 10.3357C10.5804 11.05 10.8036 11.7941 10.8036 12.5679C10.8036 13.2226 10.6101 13.6839 10.2232 13.9518C9.83631 14.2197 9.43452 14.3536 9.01786 14.3536C8.3631 14.3536 7.8125 14.0113 7.36607 13.3268C6.91964 12.6423 6.69643 11.9131 6.69643 11.1393ZM11.3393 16.675L10.7143 16.1393C10.3571 15.8417 10.1786 15.5738 10.1786 15.3357C10.1786 14.9191 10.3869 14.5619 10.8036 14.2643C11.8155 13.4905 12.3214 12.6274 12.3214 11.675C12.3214 10.8417 11.9048 10.0679 11.0714 9.35359H12.1429L12.9464 8.55001H9.10714C7.85714 8.55001 6.88988 8.89228 6.20536 9.5768C5.52083 10.2613 5.17857 11.0798 5.17857 12.0322C5.17857 12.806 5.44643 13.4905 5.98214 14.0857C6.51786 14.681 7.2619 14.9786 8.21429 14.9786H8.66071L8.48214 15.6929C8.48214 16.1095 8.66071 16.5262 9.01786 16.9429C7.58929 17.0024 6.39881 17.3298 5.44643 17.925C4.49405 18.4607 4.01786 19.2048 4.01786 20.1572C4.01786 20.931 4.36012 21.5708 5.04464 22.0768C5.72917 22.5828 6.72619 22.8357 8.03571 22.8357C9.52381 22.8357 10.6994 22.4786 11.5625 21.7643C12.4256 21.05 12.8571 20.2464 12.8571 19.3536C12.8571 18.4012 12.3512 17.5083 11.3393 16.675Z" fill="white"/>
</svg>
