<svg viewBox="0 0 1109 72" fill="none" xmlns="http://www.w3.org/2000/svg">
<path d="M0 69.1C0 70.1 0.902407 71 1.90508 71H5.91578C6.91845 71 7.82086 70.1 7.82086 69.1V2.9C7.82086 1.9 6.91845 0.999999 5.91578 0.999999H1.90508C0.902407 0.999999 0 1.9 0 2.9V69.1Z" fill="white"/>
<path d="M36.2193 36.1C36.2193 56.1 52.3623 72 72.4158 72C86.9546 72 97.1819 65.4 97.1819 65.4C97.5829 65.1 97.984 64.3 97.984 63.8V40.9C97.984 39.9 97.1819 39 96.1792 39H78.8329C77.73 39 76.9278 39.8 76.9278 40.9V44.6C76.9278 45.6 77.73 46.4 78.8329 46.4H90.3637V60.4C90.3637 60.4 83.345 64.6 72.3155 64.6C56.4733 64.6 44.4412 51.1 44.4412 35.7C44.4412 20.2 56.4733 7 72.3155 7C79.0335 7 86.2527 10.3 91.3664 14.8C92.4693 15.8 93.0709 15.9 93.9733 14.9C94.7755 14 95.8784 13 96.7808 12.1C97.5829 11.3 97.4827 10.1 96.6805 9.3C89.8624 3.5 82.5428 0 72.4158 0C52.3623 0 36.2193 16.1 36.2193 36.1Z" fill="white"/>
<path d="M127.806 69.1C127.806 70.1 128.608 71 129.711 71H133.621C134.624 71 135.526 70.1 135.526 69.1V43.6H154.677L168.013 70.1C168.214 70.5 168.715 71 169.617 71H174.731C176.435 71 177.137 69.4 176.435 68.1L162.699 42.7C171.422 39.2 177.538 31.5 177.538 22.3C177.538 10.4 167.712 0.999999 155.68 0.999999H129.711C128.608 0.999999 127.806 1.9 127.806 2.9V69.1ZM135.727 37V8.3H155.179C162.899 8.3 169.617 14.8 169.617 22.4C169.617 30.6 162.899 37 155.179 37H135.727Z" fill="white"/>
<path d="M207.131 69.1C207.131 70.1 207.933 71 209.036 71H248.541C249.644 71 250.446 70.1 250.446 69.1V66.2C250.446 65.2 249.644 64.3 248.541 64.3H214.851V38.8H243.628C244.631 38.8 245.533 38 245.533 36.9V34C245.533 33 244.631 32.1 243.628 32.1H214.851V7.7H248.541C249.644 7.7 250.446 6.8 250.446 5.8V2.9C250.446 1.9 249.644 0.999999 248.541 0.999999H209.036C207.933 0.999999 207.131 1.9 207.131 2.9V69.1Z" fill="white"/>
<path d="M268.348 64.6C270.052 66.7 274.865 72 283.588 72C295.32 72 303.742 64 303.742 50.1V2.9C303.742 1.9 302.94 0.999999 301.837 0.999999H297.927C296.824 0.999999 296.022 1.9 296.022 2.9V50.3C296.022 60.9 289.805 65.3 283.789 65.3C279.377 65.3 275.768 61.9 274.063 60C273.06 58.9 272.258 58.2 270.654 59.7L268.548 62.1C267.947 62.8 267.846 63.8 268.348 64.6Z" fill="white"/>
<path d="M326.33 71H330.341C331.243 71 331.845 70.4 332.045 69.9L339.365 53.4H374.96L382.379 69.9C382.58 70.4 383.181 71 384.084 71H388.095C389.599 71 390.401 69.7 389.799 68.4L359.518 1.1C359.218 0.499999 358.716 0 357.814 0H356.811C355.909 0 355.407 0.499999 355.107 1.1L324.625 68.4C324.024 69.7 324.826 71 326.33 71ZM342.172 47.2L356.811 14.4H357.613C362.526 25.3 367.339 36.3 372.252 47.2H342.172Z" fill="white"/>
<path d="M484 69.1C484 70.1 484.901 71 485.903 71H489.409C490.51 71 491.312 70.1 491.312 69.1V14.7H491.412L537.384 72H539.187C540.189 72 541.09 71.2 541.09 70.2V2.9C541.09 1.9 540.189 0.999999 539.187 0.999999H535.682C534.58 0.999999 533.779 1.9 533.779 2.9V56.2C533.679 56.2 533.679 56.2 533.578 56.2L488.407 0H485.903C484.901 0 484 0.800002 484 1.8V69.1Z" fill="white"/>
<path d="M566.672 71H570.679C571.58 71 572.181 70.4 572.381 69.9L579.693 53.4H615.249L622.661 69.9C622.861 70.4 623.462 71 624.364 71H628.37C629.872 71 630.674 69.7 630.073 68.4L599.825 1.1C599.524 0.499999 599.023 0 598.122 0H597.12C596.219 0 595.718 0.499999 595.418 1.1L564.97 68.4C564.369 69.7 565.17 71 566.672 71ZM582.497 47.2L597.12 14.4H597.922C602.829 25.3 607.637 36.3 612.545 47.2H582.497Z" fill="white"/>
<path d="M646.808 69.1C646.808 70.1 647.709 71 648.711 71H690.176C691.278 71 692.079 70.1 692.079 69.1V65.9C692.079 64.9 691.278 64 690.176 64H657.124V63.9L694.082 4.2V2.9C694.082 1.9 693.181 0.999999 692.179 0.999999H651.615C650.614 0.999999 649.712 1.9 649.712 2.9V6.1C649.712 7.1 650.614 8 651.615 8H683.165V8.3L646.808 67.3V69.1Z" fill="white"/>
<path d="M712.63 71H716.636C717.538 71 718.138 70.4 718.339 69.9L725.65 53.4H761.207L768.618 69.9C768.819 70.4 769.42 71 770.321 71H774.327C775.83 71 776.631 69.7 776.03 68.4L745.782 1.1C745.482 0.499999 744.981 0 744.08 0H743.078C742.177 0 741.676 0.499999 741.375 1.1L710.927 68.4C710.326 69.7 711.127 71 712.63 71ZM728.455 47.2L743.078 14.4H743.879C748.787 25.3 753.595 36.3 758.502 47.2H728.455Z" fill="white"/>
<path d="M799.977 69.1C799.977 70.1 800.778 71 801.88 71H805.786C806.787 71 807.689 70.1 807.689 69.1V43.6H826.819L840.14 70.1C840.34 70.5 840.841 71 841.743 71H846.851C848.553 71 849.255 69.4 848.553 68.1L834.832 42.7C843.546 39.2 849.655 31.5 849.655 22.3C849.655 10.4 839.84 0.999999 827.821 0.999999H801.88C800.778 0.999999 799.977 1.9 799.977 2.9V69.1ZM807.889 37V8.3H827.32C835.032 8.3 841.743 14.8 841.743 22.4C841.743 30.6 835.032 37 827.32 37H807.889Z" fill="white"/>
<path d="M879.215 69.1C879.215 70.1 880.017 71 881.118 71H920.581C921.682 71 922.484 70.1 922.484 69.1V66.2C922.484 65.2 921.682 64.3 920.581 64.3H886.927V38.8H915.673C916.675 38.8 917.576 38 917.576 36.9V34C917.576 33 916.675 32.1 915.673 32.1H886.927V7.7H920.581C921.682 7.7 922.484 6.8 922.484 5.8V2.9C922.484 1.9 921.682 0.999999 920.581 0.999999H881.118C880.017 0.999999 879.215 1.9 879.215 2.9V69.1Z" fill="white"/>
<path d="M951.509 69.1C951.509 70.1 952.411 71 953.412 71H956.918C958.02 71 958.821 70.1 958.821 69.1V14.7H958.921L1004.89 72H1006.7C1007.7 72 1008.6 71.2 1008.6 70.2V2.9C1008.6 1.9 1007.7 0.999999 1006.7 0.999999H1003.19C1002.09 0.999999 1001.29 1.9 1001.29 2.9V56.2C1001.19 56.2 1001.19 56.2 1001.09 56.2L955.916 0H953.412C952.411 0 951.509 0.800002 951.509 1.8V69.1Z" fill="white"/>
<path d="M1036.99 36.1C1036.99 56.1 1052.91 72 1072.94 72C1092.97 72 1109 56.1 1109 36.1C1109 16.1 1092.97 0 1072.94 0C1052.91 0 1036.99 16.1 1036.99 36.1ZM1044 36.1C1044 20.2 1057.02 7 1072.94 7C1088.87 7 1101.99 20.2 1101.99 36.1C1101.99 52 1088.87 65 1072.94 65C1057.02 65 1044 52 1044 36.1Z" fill="white"/>
<path d="M412.549 30.4681C412.549 30.7481 412.773 31.0001 413.053 31.0001H419.689C425.093 31.0001 429.517 26.6041 429.517 21.1721C429.517 15.7961 425.093 11.4001 419.689 11.4001H413.053C412.773 11.4001 412.549 11.6521 412.549 11.9321V30.4681ZM416.161 27.5841V14.7881H419.353C422.993 14.7881 425.653 17.5321 425.653 21.1721C425.653 24.8401 422.993 27.5841 419.353 27.5841H416.161Z" fill="white"/>
<path d="M432.821 21.2281C432.821 26.8281 437.273 31.2801 442.873 31.2801C448.473 31.2801 452.953 26.8281 452.953 21.2281C452.953 15.6281 448.473 11.1201 442.873 11.1201C437.273 11.1201 432.821 15.6281 432.821 21.2281ZM436.461 21.2281C436.461 17.7001 439.345 14.7601 442.873 14.7601C446.401 14.7601 449.313 17.7001 449.313 21.2281C449.313 24.7561 446.401 27.6401 442.873 27.6401C439.345 27.6401 436.461 24.7561 436.461 21.2281Z" fill="white"/>
<rect x="409" y="41" width="50" height="4" rx="1" fill="white"/>
</svg>
