<svg viewBox="0 0 32 33" fill="none" xmlns="http://www.w3.org/2000/svg">
<path fill-rule="evenodd" clip-rule="evenodd" d="M9.40364 0.559867C11.1098 0.481322 11.6538 0.463867 16 0.463867C20.3462 0.463867 20.8902 0.482776 22.5949 0.559867C24.2996 0.636958 25.4633 0.908958 26.4815 1.30314C27.5476 1.70605 28.5149 2.33587 29.3149 3.15041C30.1295 3.94896 30.7578 4.91478 31.1593 5.98241C31.5549 7.00059 31.8255 8.16423 31.904 9.86605C31.9825 11.5751 32 12.1191 32 16.4639C32 20.81 31.9811 21.354 31.904 23.0602C31.8269 24.762 31.5549 25.9257 31.1593 26.9439C30.7578 28.0116 30.1284 28.9791 29.3149 29.7788C28.5149 30.5933 27.5476 31.2217 26.4815 31.6231C25.4633 32.0188 24.2996 32.2893 22.5978 32.3679C20.8902 32.4464 20.3462 32.4639 16 32.4639C11.6538 32.4639 11.1098 32.445 9.40364 32.3679C7.70182 32.2908 6.53818 32.0188 5.52 31.6231C4.45225 31.2216 3.48483 30.5922 2.68509 29.7788C1.8711 28.9797 1.24119 28.0128 0.839273 26.9453C0.445091 25.9271 0.174545 24.7635 0.096 23.0617C0.0174545 21.3526 0 20.8086 0 16.4639C0 12.1177 0.0189091 11.5737 0.096 9.86896C0.173091 8.16423 0.445091 7.00059 0.839273 5.98241C1.24178 4.9149 1.87217 3.94796 2.68655 3.14896C3.48515 2.33514 4.4516 1.70524 5.51855 1.30314C6.53673 0.908958 7.70036 0.638413 9.40218 0.559867H9.40364ZM22.4655 3.43987C20.7782 3.36278 20.272 3.34678 16 3.34678C11.728 3.34678 11.2218 3.36278 9.53455 3.43987C7.97382 3.51114 7.12727 3.7715 6.56291 3.99114C5.81673 4.28205 5.28291 4.62678 4.72291 5.18678C4.19207 5.70322 3.78354 6.33191 3.52727 7.02678C3.30764 7.59114 3.04727 8.43769 2.976 9.99841C2.89891 11.6857 2.88291 12.1919 2.88291 16.4639C2.88291 20.7359 2.89891 21.2421 2.976 22.9293C3.04727 24.49 3.30764 25.3366 3.52727 25.901C3.78327 26.5948 4.192 27.2246 4.72291 27.741C5.23927 28.2719 5.86909 28.6806 6.56291 28.9366C7.12727 29.1562 7.97382 29.4166 9.53455 29.4879C11.2218 29.565 11.7265 29.581 16 29.581C20.2735 29.581 20.7782 29.565 22.4655 29.4879C24.0262 29.4166 24.8727 29.1562 25.4371 28.9366C26.1833 28.6457 26.7171 28.301 27.2771 27.741C27.808 27.2246 28.2167 26.5948 28.4727 25.901C28.6924 25.3366 28.9527 24.49 29.024 22.9293C29.1011 21.2421 29.1171 20.7359 29.1171 16.4639C29.1171 12.1919 29.1011 11.6857 29.024 9.99841C28.9527 8.43769 28.6924 7.59114 28.4727 7.02678C28.1818 6.28059 27.8371 5.74678 27.2771 5.18678C26.7606 4.65597 26.1319 4.24745 25.4371 3.99114C24.8727 3.7715 24.0262 3.51114 22.4655 3.43987ZM13.9564 21.3962C15.0977 21.8713 16.3686 21.9355 17.5519 21.5776C18.7352 21.2198 19.7577 20.4623 20.4445 19.4344C21.1314 18.4065 21.4401 17.172 21.3179 15.9418C21.1957 14.7116 20.6502 13.562 19.7745 12.6893C19.2163 12.1315 18.5414 11.7043 17.7983 11.4386C17.0552 11.1729 16.2624 11.0753 15.4771 11.1528C14.6917 11.2302 13.9333 11.4809 13.2564 11.8866C12.5796 12.2924 12.0011 12.8431 11.5626 13.4993C11.1242 14.1554 10.8366 14.9007 10.7208 15.6813C10.6049 16.4619 10.6635 17.2585 10.8924 18.0137C11.1214 18.7689 11.5149 19.464 12.0447 20.0489C12.5745 20.6338 13.2274 21.094 13.9564 21.3962ZM10.1847 10.6486C10.9484 9.88492 11.855 9.27914 12.8528 8.86585C13.8506 8.45255 14.92 8.23983 16 8.23983C17.08 8.23983 18.1494 8.45255 19.1472 8.86585C20.145 9.27914 21.0516 9.88492 21.8153 10.6486C22.5789 11.4123 23.1847 12.3189 23.598 13.3167C24.0113 14.3145 24.224 15.3839 24.224 16.4639C24.224 17.5439 24.0113 18.6133 23.598 19.6111C23.1847 20.6089 22.5789 21.5155 21.8153 22.2791C20.273 23.8214 18.1812 24.6879 16 24.6879C13.8188 24.6879 11.727 23.8214 10.1847 22.2791C8.64242 20.7368 7.77596 18.645 7.77596 16.4639C7.77596 14.2827 8.64242 12.1909 10.1847 10.6486ZM26.048 9.46459C26.2372 9.28608 26.3887 9.0714 26.4935 8.83328C26.5983 8.59517 26.6543 8.33844 26.6581 8.07831C26.6619 7.81818 26.6134 7.55994 26.5156 7.31886C26.4178 7.07779 26.2726 6.85879 26.0887 6.67483C25.9047 6.49087 25.6857 6.3457 25.4446 6.24789C25.2036 6.15009 24.9453 6.10165 24.6852 6.10544C24.4251 6.10923 24.1683 6.16518 23.9302 6.26997C23.6921 6.37476 23.4774 6.52626 23.2989 6.7155C22.9517 7.08355 22.7616 7.57241 22.769 8.07831C22.7764 8.58421 22.9806 9.06733 23.3384 9.42509C23.6962 9.78286 24.1793 9.98711 24.6852 9.99448C25.1911 10.0019 25.68 9.81178 26.048 9.46459Z" fill="white"/>
</svg>
