<svg width="51" height="52" viewBox="0 0 51 52" fill="none" xmlns="http://www.w3.org/2000/svg">
<path fill-rule="evenodd" clip-rule="evenodd" d="M8.50413 -0.0146322H42.4981L42.9391 -0.00552827L43.3681 0.0308875L43.7956 0.0855111L44.2141 0.159866L44.6251 0.256976L45.0301 0.372299L45.4246 0.507349L45.8101 0.66212L46.1866 0.833586L46.5526 1.02326L46.9096 1.23266L47.2546 1.45571L47.5861 1.69394L47.907 1.9519L48.2175 2.22351L48.51 2.50726L48.7935 2.80619L49.059 3.11573L49.314 3.44197L49.5495 3.78034L49.7685 4.12935L49.9725 4.49048L50.1615 4.86072L50.334 5.24159L50.4825 5.63156L50.6175 6.03063L50.7315 6.44032L50.8275 6.85609L50.901 7.27943L50.955 7.70734L50.9895 8.14586L51 8.58894V42.9835L50.9895 43.4252L50.955 43.8606L50.901 44.2927L50.8275 44.715L50.7315 45.1311L50.6175 45.5405L50.4825 45.9371L50.334 46.3272L50.1615 46.711L49.9725 47.0786L49.7685 47.4398L49.5495 47.788L49.314 48.1265L49.059 48.449L48.7935 48.7617L48.51 49.0615L48.2175 49.3453L47.907 49.6162L47.5861 49.8709L47.2546 50.1095L46.9096 50.332L46.5526 50.5384L46.1866 50.7286L45.8101 50.9028L45.4246 51.0543L45.0301 51.1897L44.6251 51.3058L44.2141 51.4025L43.7956 51.4767L43.3681 51.5315L42.9391 51.567L42.4981 51.5767H8.50413L8.06418 51.567L7.63399 51.5315L7.2068 51.4767L6.7892 51.4025L6.37491 51.3058L5.97322 51.1897L5.57797 51.0543L5.19233 50.9028L4.81298 50.7286L4.44654 50.5384L4.09269 50.332L3.7453 50.1095L3.4138 49.8709L3.09176 49.6162L2.78261 49.3453L2.48937 49.0615L2.20572 48.7617L1.94112 48.449L1.68928 48.1265L1.45033 47.788L1.23036 47.4398L1.02636 47.0786L0.838296 46.711L0.666173 46.3272L0.51637 45.9371L0.382497 45.5405L0.267749 45.1311L0.172125 44.715L0.098811 44.2927L0.0446243 43.8606L0.00956236 43.4252L0 42.9835V8.58894L0.00956236 8.14586L0.0446243 7.70734L0.098811 7.27943L0.172125 6.85609L0.267749 6.44032L0.382497 6.03063L0.51637 5.63156L0.666173 5.24159L0.838296 4.86072L1.02636 4.49048L1.23036 4.12935L1.45033 3.78034L1.68928 3.44197L1.94112 3.11573L2.20572 2.80619L2.48937 2.50726L2.78261 2.22351L3.09176 1.9519L3.4138 1.69394L3.7453 1.45571L4.09269 1.23266L4.44654 1.02326L4.81298 0.833586L5.19233 0.66212L5.57797 0.507349L5.97322 0.372299L6.37491 0.256976L6.7892 0.159866L7.2068 0.0855111L7.63399 0.0308875L8.06418 -0.00552827L8.50413 -0.0146322V-0.0146322Z" fill="#1A5493"/>
<path fill-rule="evenodd" clip-rule="evenodd" d="M4.24805 42.9769H8.21324V25.7774H4.24805V42.9769V42.9769Z" fill="#FFF212"/>
<path fill-rule="evenodd" clip-rule="evenodd" d="M25.9813 29.7109H25.7548L25.5313 29.7185L25.3108 29.7276L25.0978 29.7412L24.8878 29.7534L24.6808 29.7731L24.4768 29.7958L24.2758 29.8186L24.0808 29.8474L23.8903 29.8763L23.7014 29.9081L23.5169 29.943L23.3384 29.9794L23.1629 30.0174L22.9904 30.0599L22.8224 30.1024L22.6589 30.1464L22.4999 30.1919L22.3469 30.2404L22.1969 30.289L22.0499 30.3376L21.9104 30.3891L21.7739 30.4407L21.6419 30.4954L21.5144 30.547L21.3914 30.6016L21.2729 30.6562L21.1574 30.7108L21.0494 30.7655L20.9444 30.8201L20.8454 30.8762L20.7494 30.9308L21.4964 33.4649L21.5819 33.4133L21.6719 33.3617L21.7634 33.3101L21.8594 33.2616L21.9584 33.213L22.0604 33.1644L22.1654 33.1159L22.2734 33.0719L22.3859 33.0264L22.4999 32.9808L22.6154 32.9353L22.7324 32.8943L22.8509 32.8549L22.9724 32.8139L23.0954 32.7745L23.2199 32.7396L23.3474 32.7032L23.4749 32.6713L23.6054 32.6394L23.7328 32.6106L23.8648 32.5818L23.9983 32.556L24.1288 32.5332L24.2623 32.5104L24.3928 32.4907L24.5278 32.4755L24.6613 32.4589L24.7918 32.4498L24.9253 32.4391L25.0558 32.43L25.1908 32.427H25.3213L25.5313 32.43L25.7353 32.4391L25.9258 32.4558L26.1043 32.4755L26.2768 32.5044L26.4403 32.5362L26.5933 32.5742L26.7358 32.6167L26.8738 32.6652L27.0013 32.7168L27.1183 32.7714L27.2263 32.8291L27.3283 32.8913L27.4243 32.955L27.5143 33.0233L27.5938 33.0901L27.6673 33.1614L27.7363 33.2358L27.7978 33.3071L27.8518 33.3814L27.8998 33.4588L27.9448 33.5332L27.9823 33.606L28.0168 33.6804L28.0468 33.7547L28.0678 33.826L28.0873 33.8973L28.1038 33.9641L28.1158 34.0324L28.1233 34.0961L28.1293 34.1583V34.216V34.3541L27.6538 34.3586L27.1888 34.3708L26.7358 34.3935L26.2963 34.4254L25.8688 34.4679L25.4548 34.5225L25.0498 34.5832L24.6613 34.6575L24.2848 34.738L23.9248 34.832L23.5739 34.9352L23.2394 35.0475L22.9214 35.1704L22.6154 35.3024L22.3214 35.4451L22.0439 35.5968L21.7829 35.7577L21.5369 35.9276L21.3044 36.1082L21.0914 36.3024L20.8904 36.5022L20.7089 36.7118L20.5424 36.9342L20.3894 37.1632L20.2589 37.4017L20.1419 37.6533L20.0429 37.9113L19.9634 38.1821L19.8989 38.4594L19.8509 38.7464L19.8254 39.0463L19.8164 39.3526L19.8194 39.5364L19.8314 39.7202L19.8539 39.9039L19.8869 40.0845L19.9274 40.265L19.9754 40.4456L20.0324 40.623L20.0999 40.7972L20.1734 40.968L20.2589 41.1357L20.3519 41.3002L20.4509 41.4614L20.5589 41.6193L20.6774 41.7709L20.8049 41.9193L20.9384 42.0612L21.0809 42.1965L21.2309 42.3255L21.3914 42.4481L21.5564 42.5642L21.7319 42.6737L21.9164 42.7769L22.1084 42.8704L22.3094 42.9543L22.5164 43.0317L22.7294 43.0994L22.9559 43.1575L23.1854 43.2057L23.4239 43.2444L23.6698 43.2736L23.9248 43.2896L24.1858 43.296L24.3448 43.2928L24.5023 43.2865L24.6553 43.2799L24.8083 43.267L24.9568 43.251L25.1068 43.2315L25.2538 43.2091L25.4008 43.1833L25.5433 43.151L25.6843 43.1188L25.8238 43.0833L25.9618 43.0446L26.0953 43.0027L26.2288 42.9575L26.3593 42.9059L26.4868 42.8543L26.6113 42.7995L26.7358 42.7414L26.8573 42.6835L26.9758 42.619L27.0898 42.5513L27.2008 42.4835L27.3133 42.4094L27.4183 42.3352L27.5233 42.2578L27.6253 42.1773L27.7243 42.0933L27.8173 42.0062L27.9088 41.9193L27.9988 41.829L28.0843 41.7354L28.1668 41.6387H28.2118L28.6453 42.9769H31.8717V35.354L31.8672 35.0642L31.8522 34.7805L31.8297 34.4997L31.7982 34.2221L31.7562 33.9489L31.7022 33.6804L31.6422 33.4194L31.5687 33.1644L31.4817 32.9141L31.3902 32.6713L31.2807 32.4361L31.1637 32.207L31.0332 31.9854L30.8922 31.7715L30.7362 31.5651L30.5712 31.3694L30.3928 31.1812L30.1978 31.0052L29.9908 30.8368L29.7703 30.679L29.5378 30.5303L29.2888 30.3952L29.0278 30.2693L28.7503 30.157L28.4608 30.0538L28.1518 29.9658L27.8293 29.8884L27.4918 29.8247L27.1378 29.7761L26.7673 29.7412L26.3818 29.7185L25.9813 29.7109V29.7109ZM28.2433 38.2208V38.2982L28.2403 38.3788L28.2343 38.4594L28.2283 38.5433L28.2178 38.6238L28.2088 38.7078L28.1953 38.7883L28.1773 38.8689L28.1698 38.8979L28.1578 38.9399L28.1488 38.9786L28.1383 39.0044L28.1263 39.0366L28.1128 39.0689L28.0783 39.1495L28.0393 39.2268L27.9988 39.3042L27.9538 39.3816L27.9058 39.4558L27.8548 39.5332L27.8008 39.6073L27.7438 39.6783L27.6823 39.7491L27.6223 39.8201L27.5548 39.8878L27.4858 39.9555L27.4153 40.02L27.3418 40.0813L27.2623 40.1426L27.1828 40.2006L27.0988 40.2555L27.0163 40.3103L26.9278 40.3587L26.8378 40.4069L26.7463 40.4521L26.6503 40.4908L26.5543 40.5295L26.4523 40.565L26.3503 40.594L26.2483 40.623L26.1403 40.6456L26.0323 40.6649L25.9228 40.6811L25.8088 40.6907L25.6933 40.7004H25.5793H25.4773L25.3783 40.694L25.2823 40.6875L25.1863 40.6746L25.0948 40.6585L25.0048 40.6424L24.9163 40.6198L24.8293 40.594L24.7498 40.5682L24.6673 40.5359L24.5908 40.5005L24.5173 40.4618L24.4438 40.4232L24.3778 40.3779L24.3103 40.3295L24.2503 40.2813L24.1888 40.2264L24.1348 40.1684L24.0808 40.1103L24.0328 40.0458L23.9878 39.9781L23.9443 39.9104L23.9053 39.8362L23.8708 39.762L23.8423 39.6846L23.8138 39.6009L23.7913 39.517L23.7718 39.43L23.7553 39.3364L23.7463 39.2429L23.7403 39.1463L23.7373 39.0463L23.7403 38.9334L23.7493 38.827L23.7658 38.7206L23.7838 38.6175L23.8093 38.5207L23.8423 38.424L23.8798 38.3337L23.9218 38.2434L23.9698 38.1563L24.0208 38.0758L24.0778 37.995L24.1408 37.9176L24.2083 37.8436L24.2818 37.7758L24.3583 37.7081L24.4408 37.6436L24.5278 37.5791L24.6163 37.5212L24.7123 37.4662L24.8113 37.4114L24.9133 37.3599L25.0213 37.3115L25.1293 37.2664L25.2448 37.2245L25.3648 37.1825L25.4863 37.1471L25.6108 37.1116L25.7413 37.0761L25.8718 37.0471L26.0098 37.0181L26.1463 36.9923L26.2903 36.9697L26.4238 36.9503L26.5633 36.931L26.7043 36.915L26.8513 36.8987L26.9968 36.8892L27.1498 36.8763L27.3028 36.8697L27.4603 36.8634L27.5548 36.86L27.6508 36.8568L27.7498 36.8537H27.8458H27.9448H28.0423H28.1413H28.2433V38.2208V38.2208Z" fill="#FFF212"/>
<path fill-rule="evenodd" clip-rule="evenodd" d="M42.8233 30.0887V37.6436V37.7565L42.8173 37.8661L42.8068 37.9726L42.7918 38.0758L42.7753 38.179L42.7528 38.2756L42.7243 38.3724L42.6898 38.4627L42.6613 38.5368L42.6253 38.611L42.5878 38.6852L42.5488 38.7594L42.5083 38.8302L42.4633 38.9044L42.4153 38.9786L42.3643 39.0495L42.3103 39.1205L42.2563 39.1914L42.1949 39.2624L42.1348 39.3301L42.0719 39.3946L42.0044 39.459L41.9339 39.5204L41.8604 39.5815L41.7839 39.6396L41.7074 39.6976L41.6249 39.7492L41.5424 39.8008L41.4524 39.846L41.3639 39.891L41.2709 39.9331L41.1749 39.9684L41.0774 40.0039L40.9754 40.0329L40.8689 40.0587L40.7609 40.0781L40.6529 40.0974L40.5374 40.1071L40.4234 40.1168H40.3019L40.1549 40.1136L40.0124 40.1039L39.8714 40.0879L39.7379 40.0621L39.6104 40.0329L39.4859 39.9942L39.3689 39.9492L39.2564 39.8976L39.1484 39.8428L39.0464 39.7783L38.9474 39.7073L38.8544 39.6299L38.7689 39.5493L38.6834 39.459L38.6069 39.3656L38.5334 39.2656L38.4629 39.1592L38.3999 39.0463L38.3414 38.9271L38.2844 38.8044L38.2364 38.6755L38.1884 38.5401L38.1479 38.3982L38.1119 38.253L38.0804 38.1016L38.0519 37.9468L38.0294 37.7855L38.0099 37.6179L37.9949 37.447L37.9844 37.2696L37.9784 37.089L37.9754 36.9021V30.0827H34.1055V37.6179V37.8081L34.1115 37.9919L34.119 38.1693L34.128 38.3467L34.1415 38.5207L34.1565 38.6916L34.176 38.856L34.1955 39.0205L34.221 39.1785L34.2465 39.3333L34.275 39.4848L34.3095 39.6331L34.3455 39.7783L34.383 39.9202L34.422 40.0587L34.4655 40.191L34.5105 40.3232L34.5615 40.4522L34.6095 40.578L34.6635 40.7004L34.7175 40.8197L34.7715 40.9358L34.833 41.0487L34.893 41.1616L34.953 41.2679L35.0175 41.3743L35.085 41.4775L35.154 41.5743L35.2245 41.6709L35.298 41.7646L35.3714 41.8548L35.4479 41.9418L35.5274 42.0289L35.6099 42.1095L35.6924 42.1902L35.7764 42.2642L35.8649 42.3384L35.9519 42.4095L36.0434 42.4771L36.1364 42.5416L36.2324 42.6029L36.3269 42.6609L36.4259 42.7157L36.5249 42.7706L36.6269 42.8188L36.7319 42.8672L36.8369 42.9091L36.9464 42.9512L37.0574 42.9899L37.1654 43.0252L37.2809 43.0607L37.3919 43.0897L37.5104 43.1188L37.6244 43.1446L37.7429 43.1704L37.8644 43.1897L37.9844 43.2091L38.1059 43.2252L38.2304 43.2381L38.3549 43.251L38.4824 43.2607L38.6099 43.2639L38.7404 43.2703H38.8709H38.9864L39.0974 43.2671L39.2054 43.2639L39.3134 43.2574L39.4229 43.2478L39.5279 43.2381L39.6329 43.2284L39.7349 43.2123L39.8339 43.1994L39.9329 43.18L40.0319 43.1639L40.1264 43.1413L40.2194 43.122L40.3124 43.0962L40.4039 43.0704L40.4939 43.0446L40.6649 42.9865L40.8344 42.9254L40.9934 42.8609L41.1494 42.7964L41.2994 42.7254L41.4434 42.6545L41.5799 42.5771L41.7104 42.4997L41.8349 42.419L41.9564 42.3384L42.0719 42.2547L42.1828 42.1708L42.2878 42.0837L42.3868 41.9934L42.4798 41.9031L42.5683 41.8096L42.6538 41.7193L42.7348 41.6291L42.8068 41.542L42.8773 41.4582L42.9448 41.3776L43.0048 41.2969L43.0588 41.2229L43.1098 41.1455L43.6078 42.977H46.7503V30.0887H42.8233V30.0887Z" fill="#FFF212"/>
<path fill-rule="evenodd" clip-rule="evenodd" d="M11.9323 25.7778V30.0826H10.125V33.0203H11.9323V38.2627L11.9355 38.424L11.9386 38.582L11.9419 38.7399L11.9482 38.8915L11.9578 39.0431L11.9706 39.1913L11.9833 39.3364L11.9992 39.4816L12.0151 39.6202L12.0343 39.7588L12.0567 39.8943L12.0822 40.0265L12.1077 40.1555L12.1363 40.2845L12.165 40.4069L12.1969 40.5295L12.2319 40.6488L12.2701 40.7649L12.3084 40.8778L12.3499 40.9873L12.3945 41.097L12.4392 41.2002L12.4869 41.3034L12.5379 41.4L12.5889 41.4969L12.6432 41.5903L12.7005 41.6806L12.7611 41.7709L12.8217 41.8548L12.8854 41.9354L12.9523 42.016L13.0192 42.0902L13.083 42.1546L13.1467 42.2191L13.2136 42.2804L13.2807 42.3416L13.3539 42.3997L13.4272 42.4577L13.5068 42.5158L13.5866 42.5706L13.6663 42.6253L13.7524 42.6769L13.8383 42.7253L13.9276 42.7769L14.0201 42.8221L14.1125 42.8672L14.2114 42.9124L14.3069 42.9511L14.4089 42.993L14.5109 43.0285L14.6161 43.0639L14.7214 43.0962L14.8297 43.1283L14.9413 43.1541L15.0527 43.1799L15.1682 43.2025L15.2822 43.2252L15.4007 43.2444L15.5177 43.2573L15.6392 43.2702L15.7607 43.2831L15.8852 43.2896L16.0097 43.2928L16.1372 43.296L16.3472 43.2928L16.5407 43.2865L16.7237 43.2767L16.8887 43.2639L17.0447 43.2478L17.1887 43.2283L17.3252 43.2057L17.4497 43.1799L17.5712 43.1541L17.6822 43.1252L17.7872 43.093L17.8922 43.0607L18.0902 42.9898L18.2852 42.9156V39.9201L18.2342 39.9394L18.1667 39.9588L18.0872 39.9781L17.9882 39.9942L17.8772 40.0104L17.7527 40.02L17.6192 40.0297L17.4752 40.0329L17.3477 40.0297L17.2292 40.0233L17.1152 40.0104L17.0072 39.991L16.9052 39.9684L16.8092 39.9426L16.7162 39.9104L16.6307 39.8717L16.5512 39.8299L16.4747 39.7846L16.4012 39.7299L16.3367 39.6751L16.2737 39.6138L16.2167 39.5493L16.1627 39.4783L16.1147 39.4009L16.0697 39.3235L16.0277 39.2366L15.9902 39.1495L15.9542 39.056L15.9257 38.956L15.8972 38.856L15.8747 38.7464L15.8522 38.6367L15.8372 38.5207L15.8207 38.3982L15.8087 38.2756L15.7982 38.1466L15.7922 38.0113L15.7862 37.8758L15.7832 37.7339V37.5888V33.0203H18.2432V30.0826H15.7832V25.7778H11.9323V25.7778Z" fill="#FFF212"/>
<path fill-rule="evenodd" clip-rule="evenodd" d="M41.3617 25.7748L38.9707 29.2511H41.7367L45.1071 25.7748H41.3617V25.7748Z" fill="#FFF212"/>
</svg>
