<svg width="74" height="74" viewBox="0 0 74 74" fill="none" xmlns="http://www.w3.org/2000/svg">
<path d="M37 36C46.9411 36 55 27.9411 55 18C55 8.05887 46.9411 0 37 0C27.0589 0 19 8.05887 19 18C19 27.9411 27.0589 36 37 36Z" fill="#FF0000"/>
<path d="M37 9.79051C41.5274 9.79051 45.2096 13.4727 45.2096 18.0001C45.2096 22.5275 41.5274 26.2096 37 26.2096C32.4726 26.2096 28.7904 22.5275 28.7904 18.0001C28.7904 13.4727 32.4726 9.79051 37 9.79051ZM37 9.00007C32.0285 9.00007 28 13.0286 28 18.0001C28 22.9716 32.0285 27.0001 37 27.0001C41.9715 27.0001 46 22.9716 46 18.0001C46 13.0286 41.9715 9.00007 37 9.00007Z" fill="white"/>
<path d="M34.4286 23.1429L42.1429 17.7764L34.4286 12.8571V23.1429Z" fill="white"/>
<path d="M2.43236 56.6154C1.90651 56.6154 1.4626 56.5179 1.10062 56.3231C0.738635 56.1262 0.464704 55.8544 0.278822 55.5077C0.0929408 55.161 0 54.761 0 54.3077C0 53.8544 0.0929408 53.4544 0.278822 53.1077C0.464704 52.761 0.738635 52.4903 1.10062 52.2954C1.4626 52.0985 1.90651 52 2.43236 52C2.96065 52 3.40457 52.0985 3.7641 52.2954C4.12608 52.4903 4.40001 52.761 4.5859 53.1077C4.77422 53.4544 4.86839 53.8544 4.86839 54.3077C4.86839 54.761 4.77422 55.161 4.5859 55.5077C4.40001 55.8544 4.12608 56.1262 3.7641 56.3231C3.40457 56.5179 2.96065 56.6154 2.43236 56.6154ZM2.43236 56.1815C2.8457 56.1815 3.19056 56.1026 3.46694 55.9446C3.74331 55.7867 3.94998 55.5672 4.08695 55.2862C4.22636 55.0031 4.29607 54.6769 4.29607 54.3077C4.29607 53.9385 4.22636 53.6133 4.08695 53.3323C3.94998 53.0513 3.74331 52.8318 3.46694 52.6738C3.19056 52.5159 2.8457 52.4359 2.43236 52.4338C2.01902 52.4338 1.67538 52.5128 1.40145 52.6708C1.12752 52.8287 0.920848 53.0492 0.781437 53.3323C0.644471 53.6133 0.574766 53.9385 0.57232 54.3077C0.569874 54.6769 0.637134 55.0021 0.774099 55.2831C0.91351 55.5621 1.1214 55.7815 1.39778 55.9415C1.67416 56.0995 2.01902 56.1795 2.43236 56.1815Z" fill="white"/>
<path d="M7.11828 56.6062C6.88104 56.6062 6.67315 56.5754 6.4946 56.5138C6.3185 56.4523 6.16809 56.3692 6.04335 56.2646C5.92106 56.16 5.822 56.041 5.74618 55.9077C5.67036 55.7723 5.61533 55.6297 5.58109 55.48C5.54685 55.3282 5.52973 55.1774 5.52973 55.0277V53.2H6.0727V54.8954C6.0727 55.0779 6.09349 55.2472 6.13507 55.4031C6.17665 55.559 6.24268 55.6954 6.33318 55.8123C6.42612 55.9272 6.54474 56.0164 6.68905 56.08C6.83579 56.1436 7.01311 56.1754 7.22101 56.1754C7.41178 56.1754 7.57932 56.1477 7.72362 56.0923C7.87037 56.0369 7.99266 55.9579 8.09049 55.8554C8.19077 55.7508 8.26659 55.6246 8.31795 55.4769C8.36932 55.3272 8.395 55.159 8.395 54.9723L8.77654 55.0431C8.77654 55.3836 8.70562 55.6697 8.56376 55.9015C8.4219 56.1333 8.22624 56.3087 7.97676 56.4277C7.72729 56.5467 7.44113 56.6062 7.11828 56.6062ZM8.45003 56.5231V55.7046H8.395V53.2H8.9343V56.5231H8.45003Z" fill="white"/>
<path d="M11.4235 58C11.3355 58 11.2523 57.9908 11.1741 57.9723C11.0982 57.9538 11.0261 57.9313 10.9576 57.9046L11.097 57.5908C11.2095 57.6277 11.3037 57.6462 11.3795 57.6462C11.4749 57.6462 11.5483 57.6205 11.5996 57.5692C11.6534 57.52 11.6803 57.4656 11.6803 57.4062C11.6803 57.3118 11.6302 57.2431 11.5299 57.2C11.4296 57.159 11.3171 57.1231 11.1924 57.0923L11.4639 56.4585H11.8638L11.6767 56.8892C11.8087 56.9385 11.9151 57.0051 11.9958 57.0892C12.079 57.1754 12.1206 57.2851 12.1206 57.4185C12.1206 57.5846 12.0509 57.7231 11.9115 57.8338C11.7745 57.9446 11.6119 58 11.4235 58ZM11.6033 56.6154C11.2046 56.6154 10.8671 56.5405 10.5907 56.3908C10.3143 56.241 10.104 56.0349 9.95971 55.7723C9.81785 55.5077 9.74447 55.2041 9.73958 54.8615C9.74447 54.5128 9.82029 54.2072 9.96704 53.9446C10.1138 53.68 10.3254 53.4749 10.6017 53.3292C10.8781 53.1815 11.2132 53.1077 11.607 53.1077C12.0081 53.1077 12.3566 53.1897 12.6525 53.3538C12.9509 53.5179 13.1552 53.7426 13.2652 54.0277L12.7369 54.1692C12.644 53.9703 12.496 53.8164 12.293 53.7077C12.0925 53.5969 11.8625 53.5415 11.6033 53.5415C11.3122 53.5415 11.0713 53.5979 10.8806 53.7108C10.6898 53.8215 10.5479 53.9764 10.455 54.1754C10.362 54.3744 10.3143 54.6031 10.3119 54.8615C10.3168 55.2595 10.4269 55.5795 10.6421 55.8215C10.8573 56.0615 11.1777 56.1815 11.6033 56.1815C11.8723 56.1815 12.101 56.1303 12.2893 56.0277C12.4801 55.9231 12.6244 55.7713 12.7222 55.5723L13.2652 55.7077C13.1185 56.0031 12.9032 56.2287 12.6195 56.3846C12.3358 56.5385 11.9971 56.6154 11.6033 56.6154Z" fill="white"/>
<path d="M15.1347 56.6154C14.8363 56.6154 14.5856 56.5703 14.3826 56.48C14.182 56.3897 14.0316 56.2697 13.9313 56.12C13.831 55.9703 13.7809 55.8072 13.7809 55.6308C13.7809 55.4503 13.8237 55.2964 13.9093 55.1692C13.9974 55.04 14.116 54.9344 14.2652 54.8523C14.4168 54.7703 14.5917 54.7077 14.7898 54.6646C14.9904 54.6236 15.2117 54.5877 15.4538 54.5569C15.6984 54.5241 15.9369 54.4964 16.1692 54.4738C16.404 54.4492 16.6095 54.4256 16.7856 54.4031L16.5948 54.5015C16.6021 54.1733 16.5263 53.9303 16.3673 53.7723C16.2084 53.6144 15.932 53.5354 15.5382 53.5354C15.2667 53.5354 15.0368 53.5867 14.8485 53.6892C14.6626 53.7918 14.5318 53.9538 14.4559 54.1754L13.9313 54.0462C14.0218 53.7487 14.204 53.5179 14.478 53.3538C14.7519 53.1897 15.1078 53.1077 15.5456 53.1077C15.9075 53.1077 16.2145 53.1651 16.4664 53.28C16.7208 53.3928 16.9005 53.5569 17.0057 53.7723C17.0546 53.8687 17.0864 53.9764 17.1011 54.0954C17.1158 54.2144 17.1231 54.3354 17.1231 54.4585V56.5231H16.6425V55.6892L16.7819 55.7385C16.6474 56.0236 16.4383 56.241 16.1546 56.3908C15.8708 56.5405 15.5309 56.6154 15.1347 56.6154ZM15.197 56.2246C15.4489 56.2246 15.6691 56.1867 15.8574 56.1108C16.0457 56.0349 16.1974 55.9313 16.3123 55.8C16.4273 55.6667 16.5019 55.5169 16.5361 55.3508C16.5655 55.2441 16.5814 55.1272 16.5838 55C16.5862 54.8708 16.5875 54.7744 16.5875 54.7108L16.7929 54.8C16.6095 54.8205 16.4102 54.841 16.1949 54.8615C15.9821 54.8821 15.7718 54.9056 15.5639 54.9323C15.3585 54.959 15.1726 54.9908 15.0063 55.0277C14.8937 55.0544 14.7849 55.0923 14.6797 55.1415C14.5746 55.1887 14.4877 55.2523 14.4193 55.3323C14.3532 55.4123 14.3202 55.5118 14.3202 55.6308C14.3202 55.7272 14.3483 55.8205 14.4046 55.9108C14.4633 56.001 14.5562 56.0759 14.6834 56.1354C14.813 56.1949 14.9842 56.2246 15.197 56.2246Z" fill="white"/>
<path d="M21.2237 56.6154C20.8373 56.6154 20.5022 56.5436 20.2185 56.4C19.9372 56.2564 19.7183 56.0544 19.5618 55.7938C19.4052 55.5333 19.327 55.2277 19.327 54.8769C19.327 54.5138 19.404 54.2 19.5581 53.9354C19.7122 53.6708 19.9286 53.4667 20.2075 53.3231C20.4887 53.1795 20.8201 53.1077 21.2017 53.1077C21.593 53.1077 21.9269 53.1836 22.2032 53.3354C22.4796 53.4851 22.6887 53.7005 22.8306 53.9815C22.9725 54.2626 23.0373 54.5979 23.025 54.9877H22.4747V54.8277C22.4649 54.3969 22.3537 54.0718 22.1409 53.8523C21.9305 53.6328 21.6224 53.5231 21.2164 53.5231C20.7908 53.5231 20.4643 53.639 20.2368 53.8708C20.0118 54.1026 19.8993 54.4328 19.8993 54.8615C19.8993 55.28 20.0118 55.6051 20.2368 55.8369C20.4643 56.0667 20.7859 56.1815 21.2017 56.1815C21.4854 56.1815 21.7324 56.1272 21.9428 56.0185C22.1556 55.9077 22.3231 55.7487 22.4454 55.5415L22.948 55.7046C22.7915 55.9938 22.5603 56.2185 22.2546 56.3785C21.9513 56.5364 21.6077 56.6154 21.2237 56.6154ZM19.7085 54.9877V54.6092H22.7352V54.9877H19.7085Z" fill="white"/>
<path d="M28.457 56.5231L28.4607 54.3415C28.4607 54.0851 28.3751 53.8841 28.2039 53.7385C28.0351 53.5908 27.8199 53.5169 27.5582 53.5169C27.409 53.5169 27.2635 53.5456 27.1216 53.6031C26.9798 53.6605 26.8624 53.7528 26.7694 53.88C26.6789 54.0072 26.6337 54.1733 26.6337 54.3785L26.3145 54.3015C26.3072 54.0636 26.3622 53.8554 26.4796 53.6769C26.5994 53.4985 26.7633 53.36 26.9712 53.2615C27.1815 53.161 27.4188 53.1108 27.6829 53.1108C28.0816 53.1108 28.4008 53.2144 28.6405 53.4215C28.8802 53.6267 29 53.9046 29 54.2554L28.9963 56.5231H28.457ZM23.7281 56.5231V53.2H24.2123V54.0185H24.271V56.5231H23.7281ZM26.098 56.5231L26.1017 54.3723C26.1017 54.1077 26.0173 53.8995 25.8486 53.7477C25.6823 53.5938 25.4621 53.5169 25.1882 53.5169C24.9143 53.5169 24.6929 53.5959 24.5242 53.7538C24.3554 53.9097 24.271 54.1179 24.271 54.3785L23.9482 54.2308C23.9482 54.0174 24.0081 53.8267 24.1279 53.6585C24.2478 53.4882 24.4117 53.3549 24.6196 53.2585C24.8274 53.16 25.0635 53.1108 25.3276 53.1108C25.5795 53.1108 25.8033 53.1559 25.999 53.2462C26.1971 53.3364 26.3524 53.4677 26.4649 53.64C26.5774 53.8123 26.6337 54.0215 26.6337 54.2677L26.63 56.5231H26.098Z" fill="white"/>
<path d="M48.388 66.6299C48.0317 68.3548 47.7616 70.4571 47.6196 71.3262H47.5194C47.4053 70.4306 47.1352 68.3389 46.765 66.6432L45.8546 62.4226H43.0818V73.8113H44.8023V64.4239L44.9721 65.301L46.7204 73.8113H48.4409L50.1614 65.301L50.3451 64.4186V73.8113H52.0656V62.4226H49.265L48.388 66.6299Z" fill="white"/>
<path d="M56.7204 72.0997C56.5645 72.4106 56.2221 72.6286 55.8824 72.6286C55.4843 72.6286 55.3284 72.3309 55.3284 71.5973V65.4897H53.3657V71.7063C53.3657 73.2399 53.8919 73.9468 55.0584 73.9468C55.8546 73.9468 56.4949 73.6066 56.9348 72.7934H56.9765L57.1464 73.8113H58.6831V65.4897H56.7204V72.0997Z" fill="white"/>
<path d="M62.4776 68.7747C61.8373 68.3256 61.4392 68.0279 61.4392 67.3767C61.4392 66.9143 61.6675 66.6565 62.2076 66.6565C62.7616 66.6565 62.9481 67.0233 62.9621 68.2724L64.6102 68.2033C64.7382 66.1807 64.0422 65.3382 62.2354 65.3382C60.5567 65.3382 59.7327 66.0585 59.7327 67.5362C59.7327 68.8811 60.4147 69.4897 61.5255 70.2924C62.4776 70.9993 63.0317 71.3927 63.0317 71.9615C63.0317 72.3947 62.7477 72.695 62.2494 72.695C61.6675 72.695 61.3251 72.1661 61.4114 71.2439L59.7466 71.2704C59.4905 72.9953 60.2171 74 62.1491 74C63.8418 74 64.7215 73.2532 64.7215 71.7595C64.7243 70.404 64.0144 69.8591 62.4776 68.7747Z" fill="white"/>
<path d="M67.6809 65.4897H65.8045V73.8113H67.6809V65.4897Z" fill="white"/>
<path d="M66.7566 62.2046C66.0328 62.2046 65.6903 62.4625 65.6903 63.3581C65.6903 64.2804 66.0328 64.5116 66.7566 64.5116C67.4971 64.5116 67.8229 64.2804 67.8229 63.3581C67.8229 62.5023 67.4971 62.2046 66.7566 62.2046Z" fill="white"/>
<path d="M73.9949 70.8106L72.2744 70.7282C72.2744 72.1953 72.1046 72.6684 71.5199 72.6684C70.9381 72.6684 70.8379 72.1395 70.8379 70.4146V68.7987C70.8379 67.1296 70.952 66.6007 71.5339 66.6007C72.074 66.6007 72.2159 67.103 72.2159 68.6498L73.9225 68.5409C74.0366 67.2518 73.8668 66.3694 73.3407 65.8671C72.9565 65.5003 72.3746 65.3249 71.5645 65.3249C69.6603 65.3249 68.878 66.303 68.878 69.0432V70.21C68.878 73.0326 69.5461 73.9415 71.4949 73.9415C72.3189 73.9415 72.8869 73.7794 73.2711 73.4259C73.8251 72.9422 74.0366 72.0997 73.9949 70.8106Z" fill="white"/>
<path d="M7.0128 73.5668C6.62026 73.3143 6.33908 72.9209 6.17482 72.3867C6.00779 71.8525 5.92705 71.1429 5.92705 70.2552V69.0459C5.92705 68.1502 6.02171 67.4299 6.21102 66.8877C6.40032 66.3455 6.69542 65.9495 7.0991 65.6997C7.50277 65.4498 8.03173 65.3276 8.68596 65.3276C9.33184 65.3276 9.84687 65.4552 10.2366 65.7076C10.6264 65.9601 10.9103 66.3561 11.0885 66.8957C11.2695 67.4352 11.3586 68.1502 11.3586 69.0485V70.2578C11.3586 71.1455 11.2695 71.8578 11.0941 72.3973C10.9187 72.9369 10.6347 73.3302 10.2422 73.5774C9.84965 73.8272 9.31513 73.9495 8.64141 73.9495C7.94821 73.9469 7.40534 73.8193 7.0128 73.5668ZM9.21769 72.2645C9.32627 71.9934 9.38195 71.5495 9.38195 70.9329V68.3389C9.38195 67.7409 9.32627 67.305 9.21769 67.0286C9.10912 66.7522 8.91703 66.614 8.64141 66.614C8.37694 66.614 8.18763 66.7522 8.07905 67.0286C7.97048 67.305 7.9148 67.7409 7.9148 68.3389V70.9329C7.9148 71.5495 7.9677 71.9907 8.0707 72.2645C8.17371 72.5356 8.36302 72.6711 8.63863 72.6711C8.91424 72.6711 9.10633 72.5356 9.21769 72.2645Z" fill="white"/>
<path d="M37.216 70.2738V70.6937C37.216 71.2279 37.2327 71.6292 37.2661 71.895C37.2995 72.1608 37.3691 72.3575 37.4721 72.4797C37.5751 72.602 37.7366 72.6631 37.9565 72.6631C38.2488 72.6631 38.4521 72.5542 38.5606 72.3362C38.6692 72.1183 38.7277 71.7568 38.7388 71.2492L40.4315 71.3449C40.4398 71.4166 40.4454 71.5176 40.4454 71.6425C40.4454 72.4106 40.2254 72.9874 39.7828 73.3674C39.3429 73.7475 38.7193 73.9389 37.912 73.9389C36.9459 73.9389 36.2667 73.6492 35.8797 73.0698C35.4899 72.4904 35.2978 71.5947 35.2978 70.3827V68.9289C35.2978 67.6797 35.4983 66.7681 35.902 66.194C36.3056 65.6199 36.9933 65.3329 37.9704 65.3329C38.6442 65.3329 39.1592 65.4498 39.5211 65.6864C39.8802 65.9229 40.1336 66.287 40.2811 66.7867C40.4287 67.2837 40.5011 67.9721 40.5011 68.8492V70.2738H37.216ZM37.4638 66.7708C37.3635 66.8877 37.2967 67.0817 37.2661 67.3475C37.2327 67.6133 37.216 68.0199 37.216 68.5621V69.1601H38.6525V68.5621C38.6525 68.0279 38.633 67.6239 38.5968 67.3475C38.5579 67.0711 38.491 66.8771 38.3908 66.7628C38.2906 66.6485 38.1375 66.5927 37.9287 66.5927C37.7171 66.5954 37.564 66.6538 37.4638 66.7708Z" fill="white"/>
<path d="M2.23273 70.1169L0 62.4199H1.94877L2.73106 65.9096C2.93151 66.7708 3.07628 67.5017 3.17093 68.1076H3.22661C3.29342 67.6744 3.44097 66.9435 3.66647 65.9229L4.47661 62.4199H6.42538L4.1648 70.1169V73.8086H2.22995V70.1169H2.23273Z" fill="white"/>
<path d="M17.6921 65.4897V73.8113H16.1553L15.9855 72.7934H15.9437C15.5261 73.5615 14.8998 73.9469 14.0674 73.9469C13.4883 73.9469 13.0623 73.7661 12.7867 73.4047C12.5111 73.0432 12.3747 72.4771 12.3747 71.7063V65.4897H14.3374V71.6C14.3374 71.9721 14.3792 72.2352 14.4655 72.3947C14.5518 72.5542 14.6937 72.6312 14.8914 72.6312C15.0612 72.6312 15.2255 72.5807 15.3814 72.4824C15.5373 72.3841 15.6542 72.2565 15.7294 72.1023V65.4897H17.6921Z" fill="white"/>
<path d="M27.7589 65.4897V73.8113H26.2221L26.0523 72.7934H26.0105C25.5929 73.5615 24.9666 73.9469 24.1342 73.9469C23.5551 73.9469 23.1291 73.7661 22.8535 73.4047C22.5779 73.0432 22.4415 72.4771 22.4415 71.7063V65.4897H24.4042V71.6C24.4042 71.9721 24.446 72.2352 24.5323 72.3947C24.6186 72.5542 24.7605 72.6312 24.9582 72.6312C25.128 72.6312 25.2923 72.5807 25.4482 72.4824C25.6041 72.3841 25.721 72.2565 25.7962 72.1023V65.4897H27.7589Z" fill="white"/>
<path d="M23.0261 63.9269H21.0774V73.8113H19.1564V63.9269H17.2077V62.4199H23.0261V63.9269Z" fill="white"/>
<path d="M34.2539 66.8186C34.1341 66.295 33.942 65.915 33.6776 65.6784C33.4131 65.4419 33.0456 65.3249 32.5835 65.3249C32.2243 65.3249 31.8875 65.4233 31.5729 65.6173C31.2611 65.8113 31.0189 66.0664 30.8463 66.3854H30.8324V62H28.9421V73.8113H30.5623L30.7628 73.0246H30.8045C30.9549 73.3063 31.1831 73.5269 31.4866 73.689C31.79 73.8512 32.1269 73.9336 32.4972 73.9336C33.1598 73.9336 33.6497 73.6412 33.9615 73.0591C34.2733 72.4744 34.432 71.5628 34.432 70.3243V69.0086C34.432 68.0731 34.3736 67.3449 34.2539 66.8186ZM32.4554 70.2126C32.4554 70.8186 32.4304 71.2944 32.3775 71.6372C32.3246 71.9801 32.2383 72.2246 32.113 72.3708C31.9905 72.5169 31.8235 72.5887 31.6147 72.5887C31.4532 72.5887 31.3029 72.5515 31.1664 72.4797C31.03 72.408 30.9187 72.299 30.8324 72.1528V67.4299C30.8992 67.204 31.0133 67.0179 31.1748 66.8744C31.3363 66.7309 31.5116 66.6565 31.701 66.6565C31.9014 66.6565 32.0545 66.7309 32.1631 66.8797C32.2717 67.0286 32.3468 67.2811 32.3914 67.6346C32.4331 67.988 32.4554 68.4904 32.4554 69.1415V70.2126Z" fill="white"/>
</svg>
