<svg width="64" height="78" viewBox="0 0 64 78" fill="none" xmlns="http://www.w3.org/2000/svg">
<circle cx="32" cy="18" r="18" fill="white"/>
<path d="M43.2696 10.8002H38.4636V13.6119H43.2696V10.8002Z" fill="#40AB5D"/>
<path d="M43.2696 14.6985H38.4636V17.5102H43.2696V14.6985Z" fill="url(#paint0_linear_1021_491)"/>
<path d="M43.2696 18.5968H38.4636V21.4085H43.2696V18.5968Z" fill="url(#paint1_linear_1021_491)"/>
<path d="M25.8494 22.4951H21.0435V25.3069H25.8494V22.4951Z" fill="url(#paint2_linear_1021_491)"/>
<path d="M31.6524 22.4951H26.8464V25.3069H31.6524V22.4951Z" fill="url(#paint3_linear_1021_491)"/>
<path d="M37.4666 22.4951H32.6606V25.3069H37.4666V22.4951Z" fill="url(#paint4_linear_1021_491)"/>
<path d="M43.2696 22.4951H38.4636V25.3069H43.2696V22.4951Z" fill="url(#paint5_linear_1021_491)"/>
<path d="M37.4666 18.5968H32.6606V21.4085H37.4666V18.5968Z" fill="url(#paint6_linear_1021_491)"/>
<path d="M31.6524 18.5968H26.8464V21.4085H31.6524V18.5968Z" fill="url(#paint7_linear_1021_491)"/>
<path d="M31.6524 14.6985H26.8464V17.5102H31.6524V14.6985Z" fill="url(#paint8_linear_1021_491)"/>
<path d="M2.51623 56.6154C1.97225 56.6154 1.51303 56.5179 1.13857 56.3231C0.764105 56.1262 0.480728 55.8544 0.288437 55.5077C0.0961457 55.161 0 54.761 0 54.3077C0 53.8544 0.0961457 53.4544 0.288437 53.1077C0.480728 52.761 0.764105 52.4903 1.13857 52.2954C1.51303 52.0985 1.97225 52 2.51623 52C3.06275 52 3.52197 52.0985 3.8939 52.2954C4.26836 52.4903 4.55174 52.761 4.74403 53.1077C4.93885 53.4544 5.03626 53.8544 5.03626 54.3077C5.03626 54.761 4.93885 55.161 4.74403 55.5077C4.55174 55.8544 4.26836 56.1262 3.8939 56.3231C3.52197 56.5179 3.06275 56.6154 2.51623 56.6154ZM2.51623 56.1815C2.94383 56.1815 3.30058 56.1026 3.58649 55.9446C3.87239 55.7867 4.08619 55.5672 4.22788 55.2862C4.3721 55.0031 4.44421 54.6769 4.44421 54.3077C4.44421 53.9385 4.3721 53.6133 4.22788 53.3323C4.08619 53.0513 3.87239 52.8318 3.58649 52.6738C3.30058 52.5159 2.94383 52.4359 2.51623 52.4338C2.08864 52.4338 1.73315 52.5128 1.44978 52.6708C1.1664 52.8287 0.952601 53.0492 0.808383 53.3323C0.666694 53.6133 0.594585 53.9385 0.592055 54.3077C0.589525 54.6769 0.659104 55.0021 0.800792 55.2831C0.945011 55.5621 1.16007 55.7815 1.44598 55.9415C1.73189 56.0995 2.08864 56.1795 2.51623 56.1815Z" fill="white"/>
<path d="M7.36374 56.6062C7.11832 56.6062 6.90326 56.5754 6.71855 56.5138C6.53638 56.4523 6.38078 56.3692 6.25174 56.2646C6.12523 56.16 6.02276 56.041 5.94433 55.9077C5.86589 55.7723 5.80897 55.6297 5.77354 55.48C5.73812 55.3282 5.72041 55.1774 5.72041 55.0277V53.2H6.2821V54.8954C6.2821 55.0779 6.30361 55.2472 6.34662 55.4031C6.38964 55.559 6.45795 55.6954 6.55156 55.8123C6.64771 55.9272 6.77042 56.0164 6.9197 56.08C7.07151 56.1436 7.25495 56.1754 7.47001 56.1754C7.66736 56.1754 7.84068 56.1477 7.98995 56.0923C8.14176 56.0369 8.26827 55.9579 8.36948 55.8554C8.47321 55.7508 8.55165 55.6246 8.60478 55.4769C8.65791 55.3272 8.68448 55.159 8.68448 54.9723L9.07918 55.0431C9.07918 55.3836 9.00581 55.6697 8.85906 55.9015C8.71231 56.1333 8.5099 56.3087 8.25183 56.4277C7.99375 56.5467 7.69772 56.6062 7.36374 56.6062ZM8.74141 56.5231V55.7046H8.68448V53.2H9.24238V56.5231H8.74141Z" fill="white"/>
<path d="M11.8174 58C11.7264 58 11.6403 57.9908 11.5594 57.9723C11.4809 57.9538 11.4063 57.9313 11.3354 57.9046L11.4797 57.5908C11.596 57.6277 11.6935 57.6462 11.7719 57.6462C11.8706 57.6462 11.9465 57.6205 11.9996 57.5692C12.0553 57.52 12.0831 57.4656 12.0831 57.4062C12.0831 57.3118 12.0312 57.2431 11.9275 57.2C11.8238 57.159 11.7074 57.1231 11.5783 57.0923L11.8592 56.4585H12.2729L12.0793 56.8892C12.2159 56.9385 12.326 57.0051 12.4095 57.0892C12.4955 57.1754 12.5385 57.2851 12.5385 57.4185C12.5385 57.5846 12.4664 57.7231 12.3222 57.8338C12.1805 57.9446 12.0123 58 11.8174 58ZM12.0034 56.6154C11.591 56.6154 11.2418 56.5405 10.9559 56.3908C10.67 56.241 10.4524 56.0349 10.3031 55.7723C10.1564 55.5077 10.0805 55.2041 10.0754 54.8615C10.0805 54.5128 10.1589 54.2072 10.3107 53.9446C10.4625 53.68 10.6814 53.4749 10.9673 53.3292C11.2532 53.1815 11.5998 53.1077 12.0072 53.1077C12.4221 53.1077 12.7827 53.1897 13.0888 53.3538C13.3975 53.5179 13.6088 53.7426 13.7226 54.0277L13.1761 54.1692C13.08 53.9703 12.9269 53.8164 12.7169 53.7077C12.5094 53.5969 12.2716 53.5415 12.0034 53.5415C11.7023 53.5415 11.4531 53.5979 11.2557 53.7108C11.0584 53.8215 10.9116 53.9764 10.8155 54.1754C10.7194 54.3744 10.67 54.6031 10.6675 54.8615C10.6725 55.2595 10.7864 55.5795 11.0091 55.8215C11.2317 56.0615 11.5632 56.1815 12.0034 56.1815C12.2817 56.1815 12.5183 56.1303 12.7131 56.0277C12.9105 55.9231 13.0597 55.7713 13.1609 55.5723L13.7226 55.7077C13.5708 56.0031 13.3482 56.2287 13.0547 56.3846C12.7612 56.5385 12.4108 56.6154 12.0034 56.6154Z" fill="white"/>
<path d="M15.6565 56.6154C15.3479 56.6154 15.0885 56.5703 14.8785 56.48C14.6711 56.3897 14.5154 56.2697 14.4117 56.12C14.308 55.9703 14.2561 55.8072 14.2561 55.6308C14.2561 55.4503 14.3004 55.2964 14.3889 55.1692C14.48 55.04 14.6027 54.9344 14.7571 54.8523C14.9139 54.7703 15.0949 54.7077 15.2998 54.6646C15.5073 54.6236 15.7362 54.5877 15.9867 54.5569C16.2397 54.5241 16.4864 54.4964 16.7268 54.4738C16.9697 54.4492 17.1822 54.4256 17.3644 54.4031L17.167 54.5015C17.1746 54.1733 17.0962 53.9303 16.9317 53.7723C16.7673 53.6144 16.4814 53.5354 16.074 53.5354C15.7932 53.5354 15.5553 53.5867 15.3605 53.6892C15.1682 53.7918 15.0329 53.9538 14.9544 54.1754L14.4117 54.0462C14.5053 53.7487 14.6938 53.5179 14.9772 53.3538C15.2606 53.1897 15.6287 53.1077 16.0816 53.1077C16.4561 53.1077 16.7736 53.1651 17.0342 53.28C17.2973 53.3928 17.4833 53.5569 17.5921 53.7723C17.6427 53.8687 17.6756 53.9764 17.6908 54.0954C17.706 54.2144 17.7136 54.3354 17.7136 54.4585V56.5231H17.2164V55.6892L17.3606 55.7385C17.2214 56.0236 17.0051 56.241 16.7116 56.3908C16.4181 56.5405 16.0664 56.6154 15.6565 56.6154ZM15.7211 56.2246C15.9817 56.2246 16.2094 56.1867 16.4042 56.1108C16.599 56.0349 16.7559 55.9313 16.8748 55.8C16.9937 55.6667 17.0709 55.5169 17.1063 55.3508C17.1367 55.2441 17.1531 55.1272 17.1557 55C17.1582 54.8708 17.1595 54.7744 17.1595 54.7108L17.372 54.8C17.1822 54.8205 16.976 54.841 16.7534 54.8615C16.5332 54.8821 16.3156 54.9056 16.1006 54.9323C15.8881 54.959 15.6958 54.9908 15.5237 55.0277C15.4073 55.0544 15.2947 55.0923 15.1859 55.1415C15.0771 55.1887 14.9873 55.2523 14.9165 55.3323C14.8482 55.4123 14.814 55.5118 14.814 55.6308C14.814 55.7272 14.8431 55.8205 14.9013 55.9108C14.962 56.001 15.0582 56.0759 15.1897 56.1354C15.3238 56.1949 15.5009 56.2246 15.7211 56.2246Z" fill="white"/>
<path d="M21.9555 56.6154C21.5558 56.6154 21.2092 56.5436 20.9157 56.4C20.6247 56.2564 20.3982 56.0544 20.2363 55.7938C20.0744 55.5333 19.9934 55.2277 19.9934 54.8769C19.9934 54.5138 20.0731 54.2 20.2325 53.9354C20.3919 53.6708 20.6158 53.4667 20.9043 53.3231C21.1952 53.1795 21.5381 53.1077 21.9328 53.1077C22.3376 53.1077 22.683 53.1836 22.9689 53.3354C23.2548 53.4851 23.4711 53.7005 23.6179 53.9815C23.7646 54.2626 23.8317 54.5979 23.819 54.9877H23.2497V54.8277C23.2396 54.3969 23.1245 54.0718 22.9044 53.8523C22.6868 53.6328 22.368 53.5231 21.948 53.5231C21.5077 53.5231 21.1699 53.639 20.9346 53.8708C20.7019 54.1026 20.5855 54.4328 20.5855 54.8615C20.5855 55.28 20.7019 55.6051 20.9346 55.8369C21.1699 56.0667 21.5027 56.1815 21.9328 56.1815C22.2263 56.1815 22.4818 56.1272 22.6994 56.0185C22.9195 55.9077 23.0929 55.7487 23.2194 55.5415L23.7393 55.7046C23.5774 55.9938 23.3383 56.2185 23.022 56.3785C22.7083 56.5364 22.3528 56.6154 21.9555 56.6154ZM20.3881 54.9877V54.6092H23.5192V54.9877H20.3881Z" fill="white"/>
<path d="M29.4383 56.5231L29.4421 54.3415C29.4421 54.0851 29.3535 53.8841 29.1764 53.7385C29.0019 53.5908 28.7792 53.5169 28.5085 53.5169C28.3541 53.5169 28.2036 53.5456 28.0568 53.6031C27.9101 53.6605 27.7886 53.7528 27.6925 53.88C27.5989 54.0072 27.5521 54.1733 27.5521 54.3785L27.2219 54.3015C27.2143 54.0636 27.2712 53.8554 27.3927 53.6769C27.5167 53.4985 27.6862 53.36 27.9012 53.2615C28.1188 53.161 28.3643 53.1108 28.6375 53.1108C29.0499 53.1108 29.3801 53.2144 29.6281 53.4215C29.876 53.6267 30 53.9046 30 54.2554L29.9962 56.5231H29.4383ZM24.5463 56.5231V53.2H25.0472V54.0185H25.108V56.5231H24.5463ZM26.998 56.5231L27.0018 54.3723C27.0018 54.1077 26.9145 53.8995 26.7399 53.7477C26.5679 53.5938 26.3401 53.5169 26.0568 53.5169C25.7734 53.5169 25.5444 53.5959 25.3698 53.7538C25.1952 53.9097 25.108 54.1179 25.108 54.3785L24.774 54.2308C24.774 54.0174 24.836 53.8267 24.9599 53.6585C25.0839 53.4882 25.2534 53.3549 25.4685 53.2585C25.6836 53.16 25.9277 53.1108 26.201 53.1108C26.4616 53.1108 26.6931 53.1559 26.8955 53.2462C27.1004 53.3364 27.2611 53.4677 27.3775 53.64C27.4939 53.8123 27.5521 54.0215 27.5521 54.2677L27.5483 56.5231H26.998Z" fill="white"/>
<path d="M0 72.6192C0 75.9749 2.06398 77.9833 5.1307 77.9833C6.65988 77.9833 7.94673 77.5565 8.66536 76.4351V77.9833H11.4647V62H8.55673V68.795C7.89659 67.6736 6.67659 67.1715 5.14741 67.1715C2.1559 67.1632 0 69.2134 0 72.6192ZM8.64865 72.6192C8.64865 74.5356 7.34508 75.7322 5.78248 75.7322C4.16138 75.7322 2.91631 74.5356 2.91631 72.6192C2.91631 70.6695 4.16973 69.4477 5.78248 69.4477C7.34508 69.4477 8.64865 70.6862 8.64865 72.6192Z" fill="white"/>
<path d="M20.5144 73.8577C20.1802 75.0962 19.3362 75.7155 18.0076 75.7155C16.4617 75.7155 15.1915 74.7782 15.1581 73.1213H22.4865C22.5784 72.7113 22.6202 72.2761 22.6202 71.7991C22.6202 68.8284 20.598 67.1548 17.6148 67.1548C14.4311 67.1548 12.2418 69.4226 12.2418 72.5021C12.2418 75.933 14.6567 77.9916 17.9992 77.9916C20.5228 77.9916 22.2358 76.9372 22.9879 74.8368L20.5144 73.8577ZM15.1581 71.1799C15.4339 69.9832 16.4282 69.2803 17.6232 69.2803C18.9267 69.2803 19.8125 69.9832 19.8125 71.0878L19.7958 71.1799H15.1581Z" fill="white"/>
<path d="M31.3023 73.8577C30.968 75.0962 30.1241 75.7155 28.7954 75.7155C27.2495 75.7155 25.9794 74.7782 25.946 73.1213H33.2743C33.3663 72.7113 33.408 72.2761 33.408 71.7991C33.408 68.8284 31.3858 67.1548 28.4027 67.1548C25.219 67.1548 23.0297 69.4226 23.0297 72.5021C23.0297 75.933 25.4446 77.9916 28.7871 77.9916C31.3106 77.9916 33.0237 76.9372 33.7757 74.8368L31.3023 73.8577ZM25.946 71.1799C26.2217 69.9832 27.2161 69.2803 28.411 69.2803C29.7146 69.2803 30.6004 69.9832 30.6004 71.0878L30.5836 71.1799H25.946Z" fill="white"/>
<path d="M43.6694 78V75.364H37.561L43.5023 69.5732V67.1632H34.1016V69.6736H39.8423L33.9177 75.4895V78H43.6694Z" fill="white"/>
<path d="M52.1677 73.8577C51.8334 75.0962 50.9894 75.7155 49.6608 75.7155C48.1149 75.7155 46.8448 74.7782 46.8113 73.1213H54.1397C54.2316 72.7113 54.2734 72.2761 54.2734 71.7991C54.2734 68.8284 52.2512 67.1548 49.2681 67.1548C46.0844 67.1548 43.895 69.4226 43.895 72.5021C43.895 75.933 46.31 77.9916 49.6524 77.9916C52.176 77.9916 53.889 76.9372 54.6411 74.8368L52.1677 73.8577ZM46.8113 71.1799C47.0871 69.9832 48.0815 69.2803 49.2764 69.2803C50.58 69.2803 51.4657 69.9832 51.4657 71.0878L51.449 71.1799H46.8113Z" fill="white"/>
<path d="M61.1673 70.9038C61.1673 71.0126 61.1673 71.2134 61.1673 71.2134H64C64 71.2134 64 70.6778 64 70.3849C64 68.5272 62.8385 67.1799 60.8915 67.1799C59.6381 67.1799 58.7523 67.7908 58.2927 68.8033V67.1799H55.3681V78H58.2927V71.0293C58.2927 69.9247 58.886 69.3138 59.7968 69.3138C60.6325 69.3222 61.1673 70.1088 61.1673 70.9038Z" fill="white"/>
<defs>
<linearGradient id="paint0_linear_1021_491" x1="40.8901" y1="17.5345" x2="40.8449" y2="14.6572" gradientUnits="userSpaceOnUse">
<stop stop-color="#358C7B"/>
<stop offset="0.5256" stop-color="#33A65E"/>
</linearGradient>
<linearGradient id="paint1_linear_1021_491" x1="38.393" y1="21.2641" x2="43.3423" y2="18.7422" gradientUnits="userSpaceOnUse">
<stop stop-color="#222B90"/>
<stop offset="1" stop-color="#367B99"/>
</linearGradient>
<linearGradient id="paint2_linear_1021_491" x1="21.0443" y1="23.9021" x2="25.8462" y2="23.9021" gradientUnits="userSpaceOnUse">
<stop stop-color="#FF9900"/>
<stop offset="1" stop-color="#FF8000"/>
</linearGradient>
<linearGradient id="paint3_linear_1021_491" x1="26.8518" y1="23.9021" x2="31.6537" y2="23.9021" gradientUnits="userSpaceOnUse">
<stop stop-color="#FF8000"/>
<stop offset="1" stop-color="#CC1953"/>
</linearGradient>
<linearGradient id="paint4_linear_1021_491" x1="32.6593" y1="23.9021" x2="37.4612" y2="23.9021" gradientUnits="userSpaceOnUse">
<stop stop-color="#CC1953"/>
<stop offset="1" stop-color="#241284"/>
</linearGradient>
<linearGradient id="paint5_linear_1021_491" x1="38.461" y1="23.9021" x2="43.2629" y2="23.9021" gradientUnits="userSpaceOnUse">
<stop stop-color="#222B90"/>
<stop offset="1" stop-color="#3559A6"/>
</linearGradient>
<linearGradient id="paint6_linear_1021_491" x1="32.4697" y1="20.7607" x2="37.6507" y2="19.2456" gradientUnits="userSpaceOnUse">
<stop stop-color="#CC1953"/>
<stop offset="1" stop-color="#241284"/>
</linearGradient>
<linearGradient id="paint7_linear_1021_491" x1="26.6809" y1="19.0672" x2="31.8246" y2="20.9395" gradientUnits="userSpaceOnUse">
<stop offset="0.00266984" stop-color="#FFCC00"/>
<stop offset="0.9999" stop-color="#CE1938"/>
</linearGradient>
<linearGradient id="paint8_linear_1021_491" x1="27.2554" y1="14.2615" x2="31.2499" y2="17.9477" gradientUnits="userSpaceOnUse">
<stop offset="0.00266984" stop-color="#FFD100"/>
<stop offset="1" stop-color="#FD5A22"/>
</linearGradient>
</defs>
</svg>
