<svg width="65" height="81" viewBox="0 0 65 81" fill="none" xmlns="http://www.w3.org/2000/svg">
<path d="M32.6667 36.5498C42.6079 36.5498 50.6667 28.4909 50.6667 18.5498C50.6667 8.60868 42.6079 0.549805 32.6667 0.549805C22.7256 0.549805 14.6667 8.60868 14.6667 18.5498C14.6667 28.4909 22.7256 36.5498 32.6667 36.5498Z" fill="#1ED760"/>
<path d="M40.8494 25.7794C40.542 26.2673 39.8859 26.4038 39.3734 26.1111C35.3346 23.7689 30.2707 23.2419 24.2842 24.5302C23.7101 24.6473 23.1361 24.3155 23.0131 23.7689C22.8901 23.2225 23.2386 22.6759 23.8127 22.5588C30.3527 21.134 35.9701 21.739 40.4804 24.374C40.993 24.6667 41.157 25.2913 40.8494 25.7794ZM42.9406 21.3291C42.5511 21.9342 41.731 22.1099 41.0955 21.7586C36.4826 19.0456 29.4505 18.2648 23.9972 19.8458C23.2796 20.041 22.5416 19.6702 22.3365 19.0065C22.1315 18.3234 22.521 17.6207 23.2386 17.4256C29.4711 15.6298 37.2207 16.4887 42.5306 19.592C43.1251 19.9434 43.3302 20.7241 42.9406 21.3291ZM43.1251 16.6838C37.5897 13.5608 28.4666 13.2681 23.1771 14.7905C22.3365 15.0443 21.4345 14.5953 21.1679 13.7756C20.9014 12.9753 21.3935 12.1166 22.234 11.8628C28.3025 10.1062 38.3893 10.4575 44.7447 14.0489C45.5033 14.4782 45.7494 15.4151 45.2984 16.1373C44.8678 16.879 43.8837 17.1327 43.1251 16.6838Z" fill="black"/>
<path d="M2.89563 57.1652C2.35165 57.1652 1.89242 57.0678 1.51796 56.8729C1.1435 56.676 0.860123 56.4042 0.667832 56.0575C0.47554 55.7108 0.379395 55.3108 0.379395 54.8575C0.379395 54.4042 0.47554 54.0042 0.667832 53.6575C0.860123 53.3108 1.1435 53.0401 1.51796 52.8452C1.89242 52.6483 2.35165 52.5498 2.89563 52.5498C3.44214 52.5498 3.90136 52.6483 4.27329 52.8452C4.64776 53.0401 4.93113 53.3108 5.12342 53.6575C5.31825 54.0042 5.41566 54.4042 5.41566 54.8575C5.41566 55.3108 5.31825 55.7108 5.12342 56.0575C4.93113 56.4042 4.64776 56.676 4.27329 56.8729C3.90136 57.0678 3.44214 57.1652 2.89563 57.1652ZM2.89563 56.7313C3.32322 56.7313 3.67997 56.6524 3.96588 56.4944C4.25179 56.3365 4.46559 56.117 4.60727 55.836C4.75149 55.5529 4.8236 55.2267 4.8236 54.8575C4.8236 54.4883 4.75149 54.1631 4.60727 53.8821C4.46559 53.6011 4.25179 53.3816 3.96588 53.2237C3.67997 53.0657 3.32322 52.9857 2.89563 52.9837C2.46803 52.9837 2.11255 53.0626 1.82917 53.2206C1.54579 53.3785 1.332 53.599 1.18778 53.8821C1.04609 54.1631 0.97398 54.4883 0.971449 54.8575C0.968919 55.2267 1.0385 55.5519 1.18019 55.8329C1.32441 56.1119 1.53947 56.3313 1.82537 56.4913C2.11128 56.6493 2.46803 56.7293 2.89563 56.7313Z" fill="white"/>
<path d="M7.74314 57.156C7.49771 57.156 7.28265 57.1252 7.09795 57.0637C6.91578 57.0021 6.76017 56.919 6.63114 56.8144C6.50463 56.7098 6.40216 56.5908 6.32372 56.4575C6.24529 56.3221 6.18836 56.1795 6.15294 56.0298C6.11752 55.878 6.0998 55.7272 6.0998 55.5775V53.7498H6.6615V55.4452C6.6615 55.6278 6.683 55.797 6.72602 55.9529C6.76903 56.1088 6.83734 56.2452 6.93096 56.3621C7.0271 56.477 7.14982 56.5662 7.2991 56.6298C7.4509 56.6934 7.63434 56.7252 7.8494 56.7252C8.04676 56.7252 8.22007 56.6975 8.36935 56.6421C8.52116 56.5867 8.64767 56.5078 8.74887 56.4052C8.85261 56.3006 8.93104 56.1744 8.98418 56.0267C9.03731 55.877 9.06388 55.7088 9.06388 55.5221L9.45858 55.5929C9.45858 55.9334 9.3852 56.2195 9.23846 56.4513C9.09171 56.6831 8.88929 56.8585 8.63122 56.9775C8.37314 57.0965 8.07712 57.156 7.74314 57.156ZM9.1208 57.0729V56.2544H9.06388V53.7498H9.62177V57.0729H9.1208Z" fill="white"/>
<path d="M12.1968 58.5498C12.1057 58.5498 12.0197 58.5406 11.9388 58.5221C11.8603 58.5037 11.7857 58.4811 11.7148 58.4544L11.8591 58.1406C11.9754 58.1775 12.0729 58.196 12.1513 58.196C12.25 58.196 12.3259 58.1703 12.379 58.119C12.4347 58.0698 12.4625 58.0154 12.4625 57.956C12.4625 57.8616 12.4106 57.7929 12.3069 57.7498C12.2032 57.7088 12.0868 57.6729 11.9577 57.6421L12.2386 57.0083H12.6523L12.4587 57.439C12.5953 57.4883 12.7054 57.5549 12.7889 57.639C12.8749 57.7252 12.9179 57.8349 12.9179 57.9683C12.9179 58.1344 12.8458 58.2729 12.7016 58.3837C12.5599 58.4944 12.3917 58.5498 12.1968 58.5498ZM12.3828 57.1652C11.9704 57.1652 11.6212 57.0903 11.3353 56.9406C11.0494 56.7908 10.8318 56.5847 10.6825 56.3221C10.5358 56.0575 10.4599 55.7539 10.4548 55.4113C10.4599 55.0626 10.5383 54.757 10.6901 54.4944C10.8419 54.2298 11.0608 54.0247 11.3467 53.879C11.6326 53.7313 11.9792 53.6575 12.3866 53.6575C12.8015 53.6575 13.1621 53.7395 13.4682 53.9037C13.7769 54.0678 13.9882 54.2924 14.102 54.5775L13.5555 54.719C13.4594 54.5201 13.3063 54.3662 13.0963 54.2575C12.8888 54.1467 12.651 54.0913 12.3828 54.0913C12.0817 54.0913 11.8325 54.1478 11.6351 54.2606C11.4378 54.3713 11.291 54.5262 11.1949 54.7252C11.0987 54.9242 11.0494 55.1529 11.0469 55.4113C11.0519 55.8093 11.1658 56.1293 11.3884 56.3713C11.6111 56.6113 11.9426 56.7313 12.3828 56.7313C12.6611 56.7313 12.8977 56.6801 13.0925 56.5775C13.2899 56.4729 13.4391 56.3211 13.5403 56.1221L14.102 56.2575C13.9502 56.5529 13.7276 56.7785 13.4341 56.9344C13.1406 57.0883 12.7902 57.1652 12.3828 57.1652Z" fill="white"/>
<path d="M16.0359 57.1652C15.7273 57.1652 15.4679 57.1201 15.2579 57.0298C15.0504 56.9395 14.8948 56.8195 14.7911 56.6698C14.6874 56.5201 14.6355 56.357 14.6355 56.1806C14.6355 56.0001 14.6798 55.8462 14.7683 55.719C14.8594 55.5898 14.9821 55.4842 15.1365 55.4021C15.2933 55.3201 15.4742 55.2575 15.6792 55.2144C15.8867 55.1734 16.1156 55.1375 16.3661 55.1067C16.6191 55.0739 16.8658 55.0462 17.1062 55.0237C17.3491 54.999 17.5616 54.9754 17.7438 54.9529L17.5464 55.0513C17.554 54.7231 17.4756 54.4801 17.3111 54.3221C17.1467 54.1642 16.8608 54.0852 16.4534 54.0852C16.1726 54.0852 15.9347 54.1365 15.7399 54.239C15.5476 54.3416 15.4123 54.5037 15.3338 54.7252L14.7911 54.596C14.8847 54.2985 15.0732 54.0678 15.3566 53.9037C15.64 53.7395 16.0081 53.6575 16.461 53.6575C16.8355 53.6575 17.153 53.7149 17.4136 53.8298C17.6767 53.9426 17.8627 54.1067 17.9715 54.3221C18.0221 54.4185 18.055 54.5262 18.0702 54.6452C18.0854 54.7642 18.0929 54.8852 18.0929 55.0083V57.0729H17.5958V56.239L17.74 56.2883C17.6008 56.5734 17.3845 56.7908 17.091 56.9406C16.7975 57.0903 16.4458 57.1652 16.0359 57.1652ZM16.1005 56.7744C16.3611 56.7744 16.5888 56.7365 16.7836 56.6606C16.9784 56.5847 17.1353 56.4811 17.2542 56.3498C17.3731 56.2165 17.4503 56.0667 17.4857 55.9006C17.5161 55.7939 17.5325 55.677 17.5351 55.5498C17.5376 55.4206 17.5388 55.3242 17.5388 55.2606L17.7514 55.3498C17.5616 55.3703 17.3554 55.3908 17.1328 55.4113C16.9126 55.4319 16.695 55.4554 16.48 55.4821C16.2674 55.5088 16.0752 55.5406 15.9031 55.5775C15.7867 55.6042 15.6741 55.6421 15.5653 55.6913C15.4565 55.7385 15.3667 55.8021 15.2959 55.8821C15.2276 55.9621 15.1934 56.0616 15.1934 56.1806C15.1934 56.277 15.2225 56.3703 15.2807 56.4606C15.3414 56.5508 15.4376 56.6257 15.5691 56.6852C15.7032 56.7447 15.8803 56.7744 16.1005 56.7744Z" fill="white"/>
<path d="M22.3349 57.1652C21.9352 57.1652 21.5885 57.0934 21.2951 56.9498C21.0041 56.8062 20.7776 56.6042 20.6157 56.3437C20.4538 56.0831 20.3728 55.7775 20.3728 55.4267C20.3728 55.0637 20.4525 54.7498 20.6119 54.4852C20.7713 54.2206 20.9952 54.0165 21.2837 53.8729C21.5746 53.7293 21.9175 53.6575 22.3122 53.6575C22.717 53.6575 23.0624 53.7334 23.3483 53.8852C23.6342 54.0349 23.8505 54.2503 23.9973 54.5313C24.144 54.8124 24.211 55.1478 24.1984 55.5375H23.6291V55.3775C23.619 54.9467 23.5039 54.6216 23.2837 54.4021C23.0662 54.1826 22.7474 54.0729 22.3274 54.0729C21.8871 54.0729 21.5493 54.1888 21.314 54.4206C21.0813 54.6524 20.9649 54.9826 20.9649 55.4113C20.9649 55.8298 21.0813 56.1549 21.314 56.3867C21.5493 56.6165 21.882 56.7313 22.3122 56.7313C22.6057 56.7313 22.8612 56.677 23.0788 56.5683C23.2989 56.4575 23.4722 56.2985 23.5988 56.0913L24.1187 56.2544C23.9568 56.5437 23.7177 56.7683 23.4014 56.9283C23.0877 57.0862 22.7322 57.1652 22.3349 57.1652ZM20.7675 55.5375V55.159H23.8986V55.5375H20.7675Z" fill="white"/>
<path d="M29.8177 57.0729L29.8215 54.8913C29.8215 54.6349 29.7329 54.4339 29.5558 54.2883C29.3812 54.1406 29.1586 54.0667 28.8879 54.0667C28.7335 54.0667 28.583 54.0954 28.4362 54.1529C28.2895 54.2103 28.168 54.3026 28.0719 54.4298C27.9783 54.557 27.9315 54.7231 27.9315 54.9283L27.6013 54.8513C27.5937 54.6134 27.6506 54.4052 27.7721 54.2267C27.8961 54.0483 28.0656 53.9098 28.2806 53.8113C28.4982 53.7108 28.7437 53.6606 29.0169 53.6606C29.4293 53.6606 29.7595 53.7642 30.0075 53.9713C30.2554 54.1765 30.3794 54.4544 30.3794 54.8052L30.3756 57.0729H29.8177ZM24.9257 57.0729V53.7498H25.4266V54.5683H25.4873V57.0729H24.9257ZM27.3774 57.0729L27.3812 54.9221C27.3812 54.6575 27.2939 54.4493 27.1193 54.2975C26.9472 54.1437 26.7195 54.0667 26.4362 54.0667C26.1528 54.0667 25.9238 54.1457 25.7492 54.3037C25.5746 54.4595 25.4873 54.6678 25.4873 54.9283L25.1534 54.7806C25.1534 54.5672 25.2154 54.3765 25.3393 54.2083C25.4633 54.038 25.6328 53.9047 25.8479 53.8083C26.063 53.7098 26.3071 53.6606 26.5804 53.6606C26.841 53.6606 27.0725 53.7057 27.2749 53.796C27.4798 53.8862 27.6405 54.0175 27.7569 54.1898C27.8733 54.3621 27.9315 54.5713 27.9315 54.8175L27.9277 57.0729H27.3774Z" fill="white"/>
<path fill-rule="evenodd" clip-rule="evenodd" d="M1.94577 73.4041C3.18123 74.6396 4.59317 75.1691 6.09337 75.1691C7.41707 75.1691 8.29953 74.6396 8.29953 73.6689C8.29953 72.7864 7.94655 72.2569 5.47564 71.7275C2.65175 71.0215 0.886813 70.2273 0.886813 67.6681C0.886813 65.2855 2.82824 63.6088 5.56389 63.6088C7.41707 63.6088 9.09375 64.2265 10.5057 65.3737C10.5498 65.4178 10.5719 65.4399 10.5719 65.4619C10.5719 65.484 10.5498 65.5061 10.5057 65.5502L9.27025 67.3151C9.27025 67.3151 9.27025 67.4034 9.182 67.4034C9.09375 67.4034 9.00551 67.3151 9.00551 67.3151C7.77005 66.4327 6.71109 65.9914 5.56389 65.9914C4.41668 65.9914 3.53421 66.5209 3.53421 67.4034C3.53421 68.2858 3.97545 68.7271 6.5346 69.3448C9.62323 70.139 10.9469 71.2862 10.9469 73.4041C10.9469 75.8751 9.09375 77.5517 6.09337 77.5517C3.97545 77.5517 2.03402 76.8458 0.44558 75.4338C0.357333 75.3456 0.357333 75.2573 0.44558 75.1691L1.85753 73.4924C1.85753 73.4924 1.85753 73.4041 1.94577 73.4041ZM14.4768 67.2269V68.3741C15.3593 67.3151 16.33 66.8739 17.6537 66.8739C20.0363 66.8739 22.419 68.6388 22.419 72.1687C22.419 75.6986 20.0363 77.5517 17.6537 77.5517C16.33 77.5517 15.3593 77.1105 14.4768 76.1398V80.1991C14.4768 80.2874 14.3886 80.3756 14.3003 80.3756H12.0059C11.9176 80.3756 11.8294 80.2874 11.8294 80.1991V67.2269C11.8294 67.1386 11.9176 67.0504 12.0059 67.0504H14.3003C14.3886 67.0504 14.4768 67.1386 14.4768 67.2269ZM14.3886 72.1687C14.3886 73.9336 15.5358 75.2573 17.1242 75.2573C18.7126 75.2573 19.7716 73.9336 19.7716 72.1687C19.7716 70.4038 18.7126 69.1683 17.1242 69.1683C15.5358 69.1683 14.3886 70.4038 14.3886 72.1687ZM28.5963 77.5517C25.5076 77.5517 23.125 75.2573 23.125 72.2569C23.125 69.2566 25.5959 66.8739 28.6845 66.8739C31.7732 66.8739 34.0676 69.1683 34.0676 72.1687C34.0676 75.1691 31.6849 77.5517 28.5963 77.5517ZM28.5963 69.1683C26.9196 69.1683 25.7724 70.4038 25.7724 72.1687C25.7724 73.9336 27.0078 75.2573 28.6845 75.2573C30.3612 75.2573 31.5084 74.0219 31.5084 72.2569C31.5084 70.492 30.273 69.1683 28.5963 69.1683ZM38.1269 64.4912V67.0504H40.7743C40.8626 67.0504 40.9508 67.1386 40.9508 67.2269V69.1683C40.9508 69.2566 40.8626 69.3448 40.7743 69.3448H38.1269V74.1101C38.1269 74.8161 38.4799 75.1691 39.1859 75.1691C39.6271 75.1691 40.1566 75.0808 40.5978 74.8161H40.7743C40.8626 74.8161 40.8626 74.9043 40.8626 74.9926V76.8458C40.8626 76.934 40.8626 77.0223 40.7743 77.0223C40.1566 77.3752 39.3624 77.5517 38.5681 77.5517C36.5385 77.5517 35.5678 76.4928 35.5678 74.4631V69.3448H34.4206C34.3323 69.3448 34.2441 69.2566 34.2441 69.1683V67.2269C34.2441 67.1386 34.3323 67.0504 34.4206 67.0504H35.5678V64.4912C35.5678 64.403 35.656 64.3147 35.7443 64.3147H38.0387C38.1269 64.3147 38.1269 64.403 38.1269 64.4912ZM50.6579 65.4619C49.8637 65.4619 49.5107 65.8149 49.5107 66.7856V67.0504H53.3936C53.4818 67.0504 53.5701 67.1386 53.5701 67.2269L56.2175 74.1101L58.6884 67.2269C58.6884 67.1386 58.6884 67.0504 58.7766 67.0504H61.1593C61.2475 67.0504 61.3358 67.0504 61.3358 67.1386V67.3151L57.3647 77.5517C56.5705 79.6697 55.5998 80.4639 53.9231 80.4639C53.0406 80.4639 52.3346 80.2874 51.5404 79.8462C51.4522 79.8462 51.4522 79.6697 51.4522 79.5814L52.2464 77.9047L52.3346 77.8165H52.4229C52.8641 78.0812 53.3053 78.1695 53.7466 78.1695C54.2761 78.1695 54.629 77.993 54.982 77.1988L51.7169 69.3448H49.5107V77.1988C49.5107 77.287 49.5107 77.3752 49.4225 77.3752H47.1281C47.0398 77.3752 46.9516 77.287 46.9516 77.1988V69.3448H45.8044C45.7161 69.3448 45.6279 69.2566 45.6279 69.1683V67.2269C45.6279 67.1386 45.7161 67.0504 45.8044 67.0504H46.9516V66.6092C46.9516 64.403 48.0105 63.1675 50.1285 63.1675C51.0109 63.1675 51.6287 63.2558 52.0699 63.4323C52.1581 63.4323 52.1581 63.5205 52.1581 63.6088V65.4619C52.1581 65.5502 52.0699 65.6384 52.0699 65.6384H51.9816C51.5404 65.4619 51.0992 65.4619 50.6579 65.4619ZM42.0098 67.2269C42.0098 67.1386 42.098 67.0504 42.1863 67.0504H44.4807C44.5689 67.0504 44.5689 67.1386 44.5689 67.2269V77.1988C44.5689 77.287 44.5689 77.3752 44.4807 77.3752H42.1863C42.098 77.3752 42.0098 77.287 42.0098 77.1988V67.2269ZM43.3335 65.8149C42.451 65.8149 41.6568 65.0207 41.6568 64.1382C41.6568 63.2558 42.451 62.5498 43.3335 62.5498C44.2159 62.5498 44.9219 63.2558 44.9219 64.1382C44.9219 65.0207 44.2159 65.8149 43.3335 65.8149ZM64.9539 68.6388C64.9539 69.5213 64.1597 70.2273 63.2772 70.2273C62.3947 70.2273 61.6888 69.5213 61.6888 68.6388C61.6888 67.7564 62.3947 67.0504 63.2772 67.0504C64.1597 67.0504 64.9539 67.7564 64.9539 68.6388ZM64.7774 68.6388C64.7774 67.8446 64.0714 67.2269 63.2772 67.2269C62.483 67.2269 61.8653 67.8446 61.8653 68.6388C61.8653 69.433 62.483 70.0508 63.2772 70.0508C64.0714 70.0508 64.7774 69.433 64.7774 68.6388ZM64.0714 68.2858C64.0714 68.5506 63.8949 68.7271 63.6302 68.8153L64.1597 69.433H63.7184L63.3655 68.9036H63.0125V69.433H62.6595V67.7564H63.3655C63.7184 67.7564 64.0714 67.9329 64.0714 68.2858ZM63.7184 68.2858C63.7184 68.1093 63.542 68.0211 63.3655 68.0211H63.0125V68.5506H63.3655C63.542 68.5506 63.7184 68.4623 63.7184 68.2858Z" fill="white"/>
</svg>
