<svg width="40" height="31" viewBox="0 0 40 31" fill="none" xmlns="http://www.w3.org/2000/svg">
<path d="M17.5251 0.246595C16.3801 1.02172 15.3419 2.45815 14.9385 3.8241C14.7605 4.42035 14.7487 5.64538 14.9148 6.21453C15.069 6.76742 15.5318 7.61301 15.9411 8.11169C16.6708 8.99523 17.5963 9.69989 19.21 10.6159C21.9805 12.1825 23.8018 13.4671 24.7035 14.4916C25.3561 15.2288 25.801 16.199 26.0205 17.3536C26.1688 18.1504 26.1095 19.4947 25.9019 20.1451C25.7061 20.736 25.3086 21.4352 24.6501 22.3404C24.128 23.0613 23.8848 23.3161 23.7958 23.2294C23.7662 23.2023 23.6653 22.9367 23.5645 22.6385C23.4636 22.3404 23.2975 21.9827 23.2026 21.8417C22.5025 20.8389 21.1084 20.118 19.1981 19.7657C18.2548 19.5977 17.7328 19.5489 15.425 19.4134C13.3901 19.2995 12.1502 19.1911 11.3612 19.0556C8.06862 18.4919 6.1524 17.2452 4.90063 14.8548C4.34891 13.8032 4.17686 12.9684 4.23025 11.5808C4.26585 10.6268 4.34891 10.1173 4.66333 8.82719C4.78198 8.35561 4.85911 7.9545 4.84131 7.93824C4.79385 7.88945 4.34297 8.07375 4.04041 8.25805C2.67592 9.10906 1.99368 10.3287 1.78011 12.3017C1.63773 13.6189 1.89876 14.9794 2.52168 16.1231C3.71412 18.313 6.43123 19.9283 9.9967 20.5733C11.7527 20.8877 12.9867 20.9799 16.1666 21.0178C19.2634 21.0558 19.9575 21.1262 20.9304 21.5273C22.0872 22.0098 22.6805 22.6873 23.161 24.075C23.428 24.8609 23.4517 24.8935 23.6 24.7525C23.6653 24.6929 24.2586 24.0966 24.923 23.4245C26.1451 22.1941 26.9875 21.4081 28.5063 20.0638C29.7996 18.9201 30.5945 17.9661 31.1759 16.8495C32.4099 14.497 32.0421 12.2963 30.0547 10.1498C28.708 8.69168 26.2282 7.18479 24.2348 6.6048C23.5348 6.39882 22.8585 6.26331 22.8051 6.3121C22.7873 6.32836 23.0127 6.48555 23.3034 6.66985C24.8459 7.61843 26.8036 9.05485 27.824 9.98175C28.9097 10.9791 29.4258 11.7109 29.7521 12.7191C29.9835 13.4346 30.025 14.5458 29.8411 15.348C29.6928 16.0202 29.3724 16.7899 29.0105 17.3536C28.7673 17.7384 28.1503 18.3835 28.0317 18.3835C27.9961 18.3835 27.9664 18.0962 27.9664 17.7168C27.9605 17.2018 27.9249 16.9416 27.8062 16.5351C27.5274 15.554 26.9816 14.5837 26.1511 13.5755C25.279 12.5131 24.6027 11.9494 22.8288 10.8273L22.2534 10.4642L22.4847 10.269C22.9297 9.90587 23.2441 9.10906 23.167 8.54533C23.0602 7.79189 22.2237 6.77284 21.2864 6.25247C20.9363 6.06276 20.6041 5.95435 20.5626 6.01939C20.5448 6.04107 20.5982 6.14948 20.6812 6.26331C21.0194 6.71863 21.1202 7.41787 20.9245 7.9545C20.7109 8.52365 20.1651 8.89224 19.6371 8.82719C18.9905 8.75131 18.0709 7.61843 17.7328 6.48555C17.5548 5.89472 17.537 4.54502 17.7031 3.85663C17.8395 3.26579 18.0531 2.64786 18.3082 2.07329C18.4209 1.82395 18.504 1.59629 18.4921 1.56377C18.4506 1.4391 17.8929 2.11666 17.5904 2.66412C17.1632 3.43383 16.9259 4.25774 16.8251 5.29305L16.7539 6.05191L16.6471 5.64538C16.4869 5.03287 16.4573 4.04092 16.5818 3.36336C16.7539 2.4202 17.2463 1.24396 17.8099 0.436312C17.9226 0.273699 18.0353 0.111084 18.059 0.0731411C18.1599 -0.0786324 17.8514 0.0189362 17.5251 0.246595Z" fill="white"/>
<path d="M7.30233 1.73179C7.06503 2.07328 6.81586 2.58281 6.60822 3.15196C6.45991 3.56933 6.44211 3.68858 6.44211 4.39866C6.43618 4.97865 6.46584 5.29846 6.5489 5.61827C6.97604 7.30945 8.00831 8.85971 9.69908 10.3503C10.4169 10.99 10.4229 11.0387 9.72875 10.7081C8.85666 10.2907 7.58116 9.24456 6.62602 8.16589C6.36499 7.86776 6.12769 7.613 6.09209 7.60216C5.89038 7.53169 6.5489 8.8055 7.0057 9.35839C7.45065 9.89502 8.00237 10.3774 8.72021 10.8544C10.5415 12.0632 12.2501 12.6161 14.5045 12.7245C15.1333 12.757 15.246 12.7516 15.246 12.6811C15.246 12.6378 14.9079 12.3939 14.4926 12.1337C11.3068 10.166 9.05837 7.88402 8.12696 5.67247C7.70575 4.65885 7.49811 3.4284 7.59303 2.4744C7.70575 1.39573 7.64642 1.24395 7.30233 1.73179Z" fill="white"/>
<path d="M22.9279 20.1723C22.8152 20.3403 23.4203 20.9854 23.6932 20.9854C23.9364 20.9854 23.9839 20.6601 23.7763 20.4162C23.5745 20.1831 23.0287 20.0205 22.9279 20.1723Z" fill="white"/>
<path d="M16.2843 22.1235C14.813 22.2753 13.2528 22.5463 9.3432 23.3431C6.10402 23.999 5.57603 24.0911 3.64794 24.3459C2.03429 24.5573 2.04615 24.5573 1.90377 24.6765C1.73766 24.8175 1.73173 25.1319 1.89191 25.2132C2.04615 25.2836 22.7567 25.2891 22.8101 25.2132C22.8279 25.1861 22.7864 25.056 22.7152 24.9313C22.1694 23.9556 21.0244 22.9366 19.9684 22.5029C19.215 22.1885 18.8056 22.1127 17.7378 22.0964C17.1979 22.0856 16.5453 22.0964 16.2843 22.1235Z" fill="white"/>
<path d="M27.6993 22.7794C27.0705 22.9149 26.3052 23.3485 25.6585 23.9339C25.1186 24.4218 24.5195 25.1427 24.5966 25.2131C24.6381 25.2511 27.3849 25.2619 32.0419 25.2565L39.422 25.2402L39.4398 25.0722C39.4695 24.8012 39.2856 24.709 38.4669 24.5952C37.1024 24.4055 35.9574 24.1778 33.8454 23.6683C31.5377 23.1154 30.6537 22.9311 29.7282 22.801C29.0875 22.7143 28.0493 22.7035 27.6993 22.7794Z" fill="white"/>
<path d="M0.266965 26.0372C0.0830558 26.1347 0.00593256 26.254 0 26.4491C0 26.7744 0.379684 26.9858 0.74157 26.8611C0.854288 26.8177 1.00853 26.563 1.00853 26.4112C1.00853 26.1402 0.527998 25.8962 0.266965 26.0372ZM0.771232 26.1889C1.07973 26.4708 0.723772 26.9424 0.326291 26.7744C0.154246 26.7039 0.0593256 26.4817 0.124584 26.3136C0.219505 26.0751 0.569525 26.0047 0.771232 26.1889Z" fill="white"/>
<path d="M0.338002 26.2269C0.305683 26.2537 0.322022 26.3746 0.326123 26.4794C0.330301 26.5862 0.322861 26.6768 0.3558 26.6768C0.391395 26.6768 0.415126 26.6388 0.415126 26.5955C0.415126 26.5521 0.438856 26.5141 0.468519 26.5141C0.498181 26.5141 0.533777 26.5521 0.557507 26.5955C0.586651 26.6673 0.617227 26.6895 0.642201 26.6691C0.655401 26.6583 0.667037 26.6355 0.676069 26.602C0.684733 26.5697 0.590152 26.5307 0.593107 26.4794C0.741421 26.4057 0.676158 26.254 0.63463 26.2323C0.545642 26.1781 0.391395 26.1781 0.338002 26.2269ZM0.593102 26.3515C0.593102 26.3786 0.551574 26.4057 0.504114 26.4057C0.456654 26.4057 0.415126 26.3786 0.415126 26.3515C0.415126 26.319 0.456654 26.2973 0.504114 26.2973C0.551574 26.2973 0.593102 26.319 0.593102 26.3515Z" fill="white"/>
<path d="M11.261 26.01L8.19382 26.0263L8.1345 26.2323C8.10483 26.3407 8.06331 26.5358 8.03957 26.6605L7.99805 26.8936H15.4197C22.8057 26.8936 22.8354 26.8936 22.9006 26.7851C22.9362 26.7255 22.96 26.5358 22.9481 26.3623L22.9303 26.0534L21.9811 26.0209C21.0437 25.9883 17.2113 25.9829 11.261 26.01Z" fill="white"/>
<path d="M1.5611 26.1075C1.5077 26.2376 1.59669 26.8013 1.67975 26.8501C1.7628 26.8989 3.88073 26.9097 4.0765 26.861C4.23075 26.823 4.3494 26.5086 4.31974 26.2268L4.30194 26.0533L2.94931 26.0371C1.7628 26.0262 1.59669 26.0371 1.5611 26.1075Z" fill="white"/>
<path d="M4.77496 26.2268C4.57918 27.2676 4.12237 28.0264 3.37487 28.5414C3.17317 28.6769 3.04858 28.8016 3.08418 28.8178C3.11977 28.8395 3.57658 28.8666 4.09864 28.8829C4.81055 28.91 5.04192 28.9316 5.04192 28.9859C5.04192 29.0943 4.87581 29.7664 4.78089 30.0591L4.6919 30.3247L4.9648 30.2868C5.59365 30.2109 6.50726 29.5875 6.92254 28.9479C7.02933 28.7853 7.18357 28.4221 7.26663 28.1403C7.39715 27.6849 7.71157 26.2431 7.71157 26.0859C7.71157 26.0425 7.27849 26.0263 6.25809 26.0263H4.81055L4.77496 26.2268ZM6.26403 26.6063C6.24623 26.693 6.21657 26.8122 6.19284 26.8773C6.17889 26.924 6.16911 26.9939 6.16911 26.9939C6.16911 26.9939 6.27731 27.002 6.43607 27.002C6.66744 27.002 6.70897 27.0182 6.67931 27.0887C6.66151 27.1375 6.64371 27.1971 6.64371 27.2242C6.64371 27.2513 6.51319 27.273 6.34708 27.273H6.05639L5.87248 27.815C5.6945 28.3354 5.6767 28.3571 5.51652 28.3571C5.40381 28.3571 5.35041 28.3354 5.36821 28.2866C5.44533 28.0644 5.6945 27.3163 5.6945 27.2947C5.6945 27.2838 5.56992 27.273 5.4216 27.273C5.19617 27.273 5.15464 27.2567 5.1843 27.1863C5.2021 27.1375 5.2199 27.0778 5.2199 27.0507C5.2199 27.0236 5.35041 27.002 5.51652 27.002H5.80722L5.87841 26.7689C5.9674 26.4708 5.97333 26.4599 6.15131 26.4599C6.28776 26.4599 6.29962 26.4762 6.26403 26.6063Z" fill="white"/>
<path d="M24.0699 26.0642C23.9987 26.1238 24.0224 26.758 24.0996 26.8285C24.153 26.8773 25.9209 26.8936 31.6873 26.8936C38.0885 26.8936 39.2098 26.8827 39.2691 26.8177C39.3106 26.7689 39.3344 26.6008 39.3225 26.3949L39.3047 26.0534L31.7051 26.0371C27.5286 26.0317 24.0877 26.0425 24.0699 26.0642Z" fill="white"/>
</svg>
