<svg width="72" height="80" viewBox="0 0 72 80" fill="none" xmlns="http://www.w3.org/2000/svg">
<path d="M16.7121 0L13.4965 1.09629C8.99206 2.63449 5.99277 4.65993 4.2381 7.18111C2.47234 9.70228 2.1896 12.6257 2.64698 14.9599C3.05723 17.0732 3.99971 18.7445 4.86457 20.0958C4.07455 20.5717 3.8916 20.4074 3.05723 21.2572C0.803607 23.5574 -1.02591 27.8633 0.653919 33.0076C1.1689 34.5891 2.03076 36.0294 3.17369 37.2185C4.31662 38.4077 5.71037 39.3141 7.24848 39.8686C7.9193 40.1122 7.93039 39.9677 8.5236 40.0811C8.35173 41.064 8.15769 41.1858 8.17987 42.5569C8.23531 45.7126 9.32747 49.9845 13.2138 52.551C15.2595 53.8994 17.5464 54.5877 19.7862 54.9532L4.44323 75.8506L7.79734 77.2245C22.9601 83.4311 40.1963 77.2897 40.1963 77.2897L42.0924 76.6381V65.7376C44.2351 65.4175 47.2483 64.8198 50.9628 63.2249C56.8283 60.715 63.4561 55.5792 64.2572 46.5285C64.5704 43.0215 63.7693 39.3247 62.9682 36.3248C62.7631 35.5401 62.7409 35.6053 62.5358 34.9424H71.6418L69.488 30.781C69.488 30.781 68.0354 27.8718 67.2787 26.2769C69.4436 21.3422 67.8747 15.9656 63.8774 13.6965C62.7474 13.0561 61.4957 12.6715 60.2073 12.5691C56.2767 12.2235 51.7306 14.2716 48.1991 19.0731C47.8415 19.5604 46.3585 21.3535 45.513 22.3932C45.2005 21.7537 44.9157 21.1006 44.6593 20.4357C43.4229 17.263 42.0924 11.9713 42.0924 3.7846V0.951815H39.3204C36.0827 0.951815 33.4715 1.81581 31.6115 3.34268C29.7487 4.86955 28.7619 6.91482 28.3184 8.76463C27.6919 11.2971 28.1022 12.3623 28.3184 13.6002C27.3454 14.0534 26.6524 14.1413 25.2331 15.5916C24.3018 16.5577 23.5586 17.6959 23.0433 18.9457C19.8321 14.3607 17.7965 9.02654 17.1223 3.4305L16.7121 0ZM36.8395 7.29158C37.186 14.0081 38.2255 19.2431 39.5283 22.5405C40.3045 24.5319 41.1499 26.005 41.8096 26.9879C39.8942 29.325 39.3758 29.9878 37.89 31.7583C35.9219 30.7839 31.9469 28.5148 27.8859 24.6112C27.29 21.9881 28.0689 20.702 29.1527 19.5972C30.3669 18.3593 31.8804 17.804 31.8804 17.804L34.3197 16.974L33.6905 14.4302C33.6905 14.4302 33.2137 12.1073 33.6905 10.1357C33.94 9.15272 34.3391 8.36521 35.0765 7.76749C35.3814 7.51254 36.3211 7.49271 36.8395 7.29158ZM12.5541 8.14425C14.4058 16.2885 18.475 22.5178 22.7744 27.1097C22.7966 27.1891 22.8077 27.2655 22.8298 27.342L22.949 27.2995C26.5691 31.129 30.7746 34.3312 35.4008 36.7809L38.6607 39.6136C38.6607 39.6136 49.9538 26.1013 52.6176 22.4866H52.6287C56.2323 17.5718 59.4062 17.6511 61.1942 18.6567C62.9682 19.6623 64.0216 21.7105 61.962 24.8747L61.1387 26.1381L61.7125 27.5318C61.9398 28.1069 62.1893 28.5063 62.5691 29.2797H54.6495L56.1325 33.1407C56.1325 33.1407 56.9031 35.1435 57.6294 37.8233C58.3418 40.5003 58.9267 43.8855 58.7326 46.0214C58.1478 52.551 53.6876 55.9135 48.8145 58.0041C43.9413 60.0975 39.1347 60.4403 39.1347 60.4403L36.5456 60.6187V72.304C34.1534 73.0122 24.116 75.4569 13.613 72.7997L26.4972 55.2619C29.3662 55.1203 31.5228 54.7294 31.5228 54.7294L30.4805 49.1545C30.4805 49.1545 28.0883 49.6304 24.992 49.6502C21.9068 49.6842 18.2782 49.1545 16.2214 47.7919C14.2173 46.4633 13.7543 44.5399 13.7211 42.4691C13.6878 40.3898 14.2283 38.6732 14.2283 38.6732L15.5173 34.7243L11.448 34.9452C11.448 34.9452 10.3864 35.0019 9.11126 34.5345C7.82228 34.0586 6.60815 33.3305 5.91515 31.2173C4.82299 27.8633 5.76547 26.5035 6.97683 25.2628C8.19096 24.0248 9.70446 23.4696 9.70446 23.4696L13.9622 22.0221L10.7883 18.7785C10.7883 18.7785 8.54577 16.2573 8.08008 13.8551C7.84446 12.6484 7.90821 11.6739 8.74258 10.4785C9.24154 9.7816 11.1792 8.9516 12.5541 8.14425Z" fill="black"/>
</svg>
