<svg viewBox="0 0 32 31" fill="none" xmlns="http://www.w3.org/2000/svg">
<path d="M8.13021 1.67186C7.54067 0.325813 6.92104 0.294729 6.36213 0.279322C5.90882 0.263916 5.38001 0.263916 4.85093 0.263916C4.32212 0.263916 3.4757 0.465013 2.75046 1.2694C2.02496 2.07406 0 4.0234 0 7.99966C0 11.96 2.82597 15.7968 3.21882 16.3382C3.61167 16.8798 8.67407 25.2805 16.668 28.514C23.3172 31.2061 24.6773 30.6644 26.1128 30.5252C27.5635 30.386 30.7673 28.5759 31.432 26.6884C32.0818 24.801 32.0818 23.1919 31.8854 22.8516C31.6889 22.5111 31.1601 22.3103 30.3742 21.9078C29.5885 21.5056 25.7199 19.5562 24.9947 19.2778C24.2692 18.9994 23.7404 18.8757 23.2266 19.68C22.6975 20.4844 21.1866 22.2946 20.733 22.8362C20.2797 23.3776 19.8114 23.4395 19.0254 23.0373C18.2397 22.6351 15.701 21.784 12.6939 19.0303C10.3516 16.8952 8.76489 14.2496 8.31132 13.4452C7.85801 12.6408 8.26617 12.2073 8.65902 11.8054C9.00646 11.4494 9.44472 10.8615 9.83783 10.3974C10.2307 9.93333 10.3666 9.59303 10.6235 9.05137C10.8804 8.50997 10.7595 8.04588 10.5631 7.64369C10.3666 7.24122 8.82535 3.26523 8.13021 1.67186Z" fill="white"/>
</svg>
