<svg width="51" height="51" viewBox="0 0 51 51" fill="none" xmlns="http://www.w3.org/2000/svg">
<path d="M39.7718 39.0147C37.771 39.0147 35.889 38.2356 34.4741 36.8213L26.8246 29.1717C26.2875 28.6332 25.3515 28.6348 24.8146 29.1717L17.1372 36.8493C15.7223 38.2636 13.8404 39.0426 11.8395 39.0426H10.332L20.0203 48.7307C23.0459 51.7562 27.9516 51.7562 30.9774 48.7307L40.6931 39.0147H39.7718Z" fill="#32BCAD"/>
<path d="M11.841 11.9572C13.8419 11.9572 15.7238 12.7362 17.1387 14.1505L24.8161 21.8292C25.369 22.3824 26.2718 22.3845 26.8261 21.8286L34.4756 14.1785C35.8905 12.7642 37.7724 11.9852 39.7732 11.9852H40.6946L30.9791 2.26935C27.953 -0.756451 23.0474 -0.756451 20.0218 2.26935L10.334 11.9572H11.841Z" fill="#32BCAD"/>
<path d="M48.7309 20.0215L42.8595 14.1502C42.7303 14.202 42.5903 14.2343 42.4425 14.2343H39.773C38.3929 14.2343 37.0419 14.7941 36.0667 15.77L28.4175 23.4194C27.7017 24.1353 26.7611 24.4934 25.8213 24.4934C24.8807 24.4934 23.9408 24.1353 23.2252 23.4201L15.5471 15.7421C14.5719 14.7659 13.2208 14.2064 11.8408 14.2064H8.55831C8.41833 14.2064 8.28752 14.1734 8.16398 14.1268L2.26935 20.0215C-0.756451 23.0473 -0.756451 27.9528 2.26935 30.9786L8.16378 36.8729C8.28752 36.8264 8.41833 36.7934 8.55831 36.7934H11.8408C13.2208 36.7934 14.5719 36.2339 15.5471 35.258L23.2245 27.5806C24.6122 26.1941 27.0312 26.1937 28.4175 27.5813L36.0667 35.23C37.0419 36.2059 38.3929 36.7657 39.773 36.7657H42.4425C42.5903 36.7657 42.7303 36.798 42.8595 36.8498L48.7309 30.9785C51.7564 27.9527 51.7564 23.0473 48.7309 20.0215" fill="#32BCAD"/>
</svg>
