<svg width="87" height="80" viewBox="0 0 87 80" fill="none" xmlns="http://www.w3.org/2000/svg">
<path d="M21.2136 8.36492C21.346 8.49733 21.5195 8.5635 21.693 8.5635C21.8665 8.5635 22.0401 8.49733 22.1724 8.36492C22.4372 8.10018 22.4372 7.67089 22.1724 7.40608L22.1633 7.39692C21.8985 7.13218 21.4692 7.13218 21.2044 7.39692C20.9397 7.66167 20.9397 8.09096 21.2044 8.35577L21.2136 8.36492Z" fill="black"/>
<path d="M80.3756 36.9492L86.2832 31.0415C86.768 30.5568 86.9129 29.8276 86.6505 29.1944C86.3881 28.561 85.7702 28.1481 85.0846 28.1481H72.8386C71.238 21.5956 67.8785 15.6249 63.0759 10.8222C56.0975 3.84339 46.8186 0 36.9492 0C27.0797 0 17.8008 3.84339 10.8222 10.8222C3.84339 17.801 0 27.0797 0 36.9492C0 46.8186 3.84339 56.0975 10.8222 63.0761C12.8975 65.1514 15.1773 66.947 17.6144 68.449L12.5081 77.4702C12.2112 77.9949 12.2153 78.638 12.519 79.1586C12.8225 79.6797 13.38 80 13.9831 80H22.7119C23.3225 80 23.8861 79.6715 24.1869 79.14L27.7975 72.7612C30.7525 73.5108 33.821 73.8983 36.9492 73.8983C40.0773 73.8983 43.1458 73.5108 46.1008 72.7612L49.7114 79.14C50.0122 79.6715 50.5758 80 51.1864 80H59.9152C60.5183 80 61.0758 79.6797 61.3795 79.1588C61.6832 78.638 61.6873 77.9949 61.3903 77.4703L56.2841 68.4492C58.7212 66.947 61.001 65.1515 63.0763 63.0763C67.8769 58.2756 71.2381 52.3024 72.8386 45.7503H85.0847C85.7702 45.7503 86.3883 45.3373 86.6507 44.7041C86.913 44.0708 86.768 43.3417 86.2834 42.8569L80.3756 36.9492ZM77.2764 35.2542H65.4478L69.1641 31.538H80.9929L77.2764 35.2542ZM21.7236 76.6102H16.89L20.5792 70.0927C21.8453 70.7195 23.1451 71.2739 24.4749 71.7495L21.7236 76.6102ZM57.0083 76.6102H52.1747L49.4234 71.7495C50.7532 71.2739 52.053 70.7195 53.3191 70.0927L57.0083 76.6102ZM60.6791 60.6792C58.4402 62.9181 55.9395 64.7998 53.2476 66.2998C53.2144 66.3159 53.1808 66.3312 53.1481 66.3497C53.1276 66.3614 53.109 66.3747 53.0891 66.3871C51.0242 67.523 48.8483 68.4351 46.5905 69.1086C46.5017 69.1263 46.4139 69.1524 46.3273 69.1849C43.3181 70.0558 40.1686 70.5085 36.9492 70.5085C33.7297 70.5085 30.5802 70.0558 27.571 69.1851C27.4842 69.1525 27.3964 69.1264 27.3075 69.1088C25.0498 68.4353 22.8739 67.5232 20.8092 66.3873C20.7893 66.3749 20.7707 66.3615 20.7502 66.3498C20.7175 66.3314 20.6841 66.3161 20.6508 66.3C17.959 64.8 15.4583 62.9183 13.2193 60.6792C6.88068 54.3407 3.38983 45.9132 3.38983 36.9492C3.38983 27.9851 6.88068 19.5576 13.2192 13.2192C19.5576 6.88068 27.9851 3.38983 36.9492 3.38983C45.9132 3.38983 54.3407 6.88068 60.6791 13.2192C64.8441 17.3841 67.8146 22.5147 69.3398 28.1481H68.4622C68.0127 28.1481 67.5815 28.3268 67.2637 28.6446L62.7653 33.1431C62.3114 30.0615 61.3151 27.0653 59.8107 24.3403C59.3583 23.5208 58.3271 23.2236 57.5076 23.6758C56.6881 24.1281 56.3907 25.1593 56.843 25.9788C58.452 28.8931 59.3508 32.0615 59.5808 35.2544H52.1076C51.7303 31.8212 50.2132 28.6407 47.7356 26.1631C44.8544 23.2817 41.0237 21.6949 36.9492 21.6949C32.8746 21.6949 29.0439 23.2817 26.1629 26.1627C23.2817 29.0441 21.6949 32.8746 21.6949 36.9492C21.6949 41.0237 23.2817 44.8544 26.1627 47.7354C29.0439 50.6166 32.8746 52.2034 36.9492 52.2034C41.0237 52.2034 44.8544 50.6166 47.7354 47.7356C50.213 45.258 51.7302 42.0775 52.1075 38.6441H59.5734C59.1691 43.9424 56.9334 49.0841 53.0088 53.0088C48.7192 57.2986 43.0156 59.661 36.9492 59.661C30.8827 59.661 25.1792 57.2986 20.8895 53.0088C16.5997 48.7192 14.2373 43.0158 14.2373 36.9492C14.2373 30.8825 16.5997 25.1792 20.8895 20.8895C28.0051 13.7739 39.1203 12.1973 47.9197 17.0554C48.739 17.5076 49.7702 17.2103 50.2227 16.3908C50.6751 15.5714 50.3776 14.5403 49.5581 14.0878C44.703 11.4073 38.9863 10.339 33.4614 11.0803C27.752 11.8461 22.5758 14.4092 18.4925 18.4925C13.5625 23.4225 10.8475 29.9771 10.8475 36.9492C10.8475 43.9212 13.5625 50.4759 18.4924 55.4058C23.4224 60.3358 29.9771 63.0508 36.9492 63.0508C43.9212 63.0508 50.4759 60.3358 55.4058 55.4059C59.4117 51.4002 61.953 46.3424 62.7712 40.7615L67.2636 45.2539C67.5814 45.5717 68.0125 45.7503 68.462 45.7503H69.3393C67.8141 51.3834 64.8424 56.5159 60.6791 60.6792ZM42.4847 33.7532C42.0168 32.9424 40.9802 32.6647 40.1695 33.1329L36.1017 35.4814C35.5773 35.7841 35.2542 36.3436 35.2542 36.9492C35.2542 37.5547 35.5773 38.1142 36.1017 38.417L40.1695 40.7654C40.4364 40.9195 40.7278 40.9927 41.0154 40.9927C41.6012 40.9927 42.1708 40.6888 42.4847 40.1451C42.7598 39.6688 42.7756 39.1151 42.5788 38.6441H48.6927C48.3336 41.17 47.1747 43.5024 45.3385 45.3385C43.0976 47.5795 40.1183 48.8136 36.9492 48.8136C33.78 48.8136 30.8007 47.5795 28.5597 45.3385C26.3188 43.0976 25.0847 40.1183 25.0847 36.9492C25.0847 33.78 26.3188 30.8007 28.5598 28.5597C30.8007 26.3188 33.78 25.0847 36.9492 25.0847C40.1183 25.0847 43.0976 26.3188 45.3386 28.5598C47.1747 30.3959 48.3337 32.7283 48.6929 35.2542H42.579C42.7756 34.7831 42.7598 34.2295 42.4847 33.7532ZM69.1641 42.3603L65.4478 38.6441H77.2764L80.9929 42.3603H69.1641Z" fill="black"/>
</svg>
